<svg width="334.162964" height="127.000000" viewBox="0 0 334.163 127" fill="none" xmlns="http://www.w3.org/2000/svg" xmlns:xlink="http://www.w3.org/1999/xlink">
	<desc>
			Created with Pixso.
	</desc>
	<defs>
		<filter id="filter_9_278_dd" x="0.000000" y="0.000000" width="334.162964" height="127.000000" filterUnits="userSpaceOnUse" color-interpolation-filters="sRGB">
			<feFlood flood-opacity="0" result="BackgroundImageFix"/>
			<feColorMatrix in="SourceAlpha" type="matrix" values="0 0 0 0 0 0 0 0 0 0 0 0 0 0 0 0 0 0 127 0" result="hardAlpha"/>
			<feOffset dx="0" dy="4"/>
			<feGaussianBlur stdDeviation="1.33333"/>
			<feComposite in2="hardAlpha" operator="out" k2="-1" k3="1"/>
			<feColorMatrix type="matrix" values="0 0 0 0 0 0 0 0 0 0 0 0 0 0 0 0 0 0 0.25 0"/>
			<feBlend mode="normal" in2="BackgroundImageFix" result="effect_dropShadow_1"/>
			<feBlend mode="normal" in="SourceGraphic" in2="effect_dropShadow_1" result="shape"/>
		</filter>
		<filter id="filter_9_279_dd" x="4.000000" y="10.000000" width="316.000000" height="109.000000" filterUnits="userSpaceOnUse" color-interpolation-filters="sRGB">
			<feFlood flood-opacity="0" result="BackgroundImageFix"/>
			<feColorMatrix in="SourceAlpha" type="matrix" values="0 0 0 0 0 0 0 0 0 0 0 0 0 0 0 0 0 0 127 0" result="hardAlpha"/>
			<feOffset dx="0" dy="4"/>
			<feGaussianBlur stdDeviation="5"/>
			<feComposite in2="hardAlpha" operator="out" k2="-1" k3="1"/>
			<feColorMatrix type="matrix" values="0 0 0 0 1 0 0 0 0 1 0 0 0 0 1 0 0 0 0.35 0"/>
			<feBlend mode="normal" in2="BackgroundImageFix" result="effect_dropShadow_1"/>
			<feBlend mode="normal" in="SourceGraphic" in2="effect_dropShadow_1" result="shape"/>
		</filter>
		<filter id="filter_9_280_dd" x="19.000000" y="21.000000" width="286.000000" height="79.000000" filterUnits="userSpaceOnUse" color-interpolation-filters="sRGB">
			<feFlood flood-opacity="0" result="BackgroundImageFix"/>
			<feGaussianBlur in="BackgroundImage" stdDeviation="5"/>
			<feComposite in2="SourceAlpha" operator="in" result="effect_backgroundBlur_1"/>
			<feBlend mode="normal" in="SourceGraphic" in2="effect_backgroundBlur_1" result="shape"/>
		</filter>
		<filter id="filter_9_282_dd" x="47.000000" y="48.000000" width="21.000000" height="42.000000" filterUnits="userSpaceOnUse" color-interpolation-filters="sRGB">
			<feFlood flood-opacity="0" result="BackgroundImageFix"/>
			<feColorMatrix in="SourceAlpha" type="matrix" values="0 0 0 0 0 0 0 0 0 0 0 0 0 0 0 0 0 0 127 0" result="hardAlpha"/>
			<feOffset dx="0" dy="10"/>
			<feGaussianBlur stdDeviation="2"/>
			<feComposite in2="hardAlpha" operator="out" k2="-1" k3="1"/>
			<feColorMatrix type="matrix" values="0 0 0 0 1 0 0 0 0 1 0 0 0 0 1 0 0 0 0.15 0"/>
			<feBlend mode="normal" in2="BackgroundImageFix" result="effect_dropShadow_1"/>
			<feBlend mode="normal" in="SourceGraphic" in2="effect_dropShadow_1" result="shape"/>
		</filter>
		<filter id="filter_9_363_dd" x="287.000000" y="0.000000" width="43.162964" height="60.145691" filterUnits="userSpaceOnUse" color-interpolation-filters="sRGB">
			<feFlood flood-opacity="0" result="BackgroundImageFix"/>
			<feColorMatrix in="SourceAlpha" type="matrix" values="0 0 0 0 0 0 0 0 0 0 0 0 0 0 0 0 0 0 127 0" result="hardAlpha"/>
			<feOffset dx="0" dy="4"/>
			<feGaussianBlur stdDeviation="5"/>
			<feComposite in2="hardAlpha" operator="out" k2="-1" k3="1"/>
			<feColorMatrix type="matrix" values="0 0 0 0 1 0 0 0 0 1 0 0 0 0 1 0 0 0 0.35 0"/>
			<feBlend mode="normal" in2="BackgroundImageFix" result="effect_dropShadow_1"/>
			<feBlend mode="normal" in="SourceGraphic" in2="effect_dropShadow_1" result="shape"/>
		</filter>
	</defs>
	<g filter="url(#filter_9_278_dd)">
		<g filter="url(#filter_9_279_dd)">
			<rect id="Frame 229" width="286.000000" height="79.000000" transform="translate(19.000000 21.000000)" fill="#FFFFFF" fill-opacity="0"/>
			<g filter="url(#filter_9_280_dd)">
				<path id="image 6" d="M54 21L305 21L305 65C305 84.33 289.32 100 270 100L19 100L19 56C19 36.66 34.66 21 54 21Z" fill="#FFFFFF" fill-opacity="0.300000" fill-rule="evenodd"/>
				<path id="image 6" d="M305 21L305 65C305 84.33 289.32 100 270 100L19 100L19 56C19 36.66 34.66 21 54 21L305 21ZM302 24L302 65C302 82.67 287.67 97 270 97L22 97L22 56C22 38.32 36.32 24 54 24L302 24Z" fill="#FFFFFF" fill-opacity="1.000000" fill-rule="evenodd"/>
			</g>
		</g>
		<circle id="Ellipse 1" cx="59.500000" cy="60.500000" r="25.500000" fill="#5E7600" fill-opacity="1.000000"/>
		<circle id="Ellipse 1" cx="59.500000" cy="60.500000" r="25.000000" stroke="#FFFFFF" stroke-opacity="1.000000" stroke-width="1.000000"/>
		<g filter="url(#filter_9_282_dd)">
			<path id="1" d="M53 53.46L53 50.56C55.66 50.48 57.82 49.59 59.74 48L62 48L62 74L59.26 74L59.26 51.82C57.51 52.86 55.39 53.38 53 53.46Z" fill="#F6FFD2" fill-opacity="1.000000" fill-rule="nonzero"/>
		</g>
		<path id="Lorem ipsum dolor sit amet, consectetur adipiscing elit" d="M145.39 45.63C145.04 45.63 144.8 45.87 144.8 46.23C144.8 46.58 145.04 46.82 145.39 46.82C145.75 46.82 145.99 46.58 145.99 46.23C145.99 45.87 145.75 45.63 145.39 45.63ZM236.91 45.63C236.56 45.63 236.32 45.87 236.32 46.23C236.32 46.58 236.56 46.82 236.91 46.82C237.27 46.82 237.51 46.58 237.51 46.23C237.51 45.87 237.27 45.63 236.91 45.63ZM96.07 45.84L96.07 55.64L102.64 55.64L102.64 54.58L97.19 54.58L97.19 45.84L96.07 45.84ZM196.31 55.64L197.29 55.64L197.29 45.84L196.17 45.84L196.17 50.04C195.6 49.03 194.59 48.43 193.42 48.43C191.5 48.43 190.08 50.01 190.08 52.16C190.08 54.27 191.51 55.85 193.42 55.85C194.59 55.85 195.61 55.25 196.19 54.23L196.31 55.64ZM209.14 55.64L209.14 45.84L208.02 45.84L208.02 55.64L209.14 55.64ZM241.81 52.37L241.81 49.69L243.94 49.69L243.94 48.64L241.81 48.64L241.81 47.07L241.35 47.07L239.22 49.22L239.22 49.69L240.69 49.69L240.69 52.37C240.69 54.68 241.64 55.85 243.94 55.85L243.94 54.79C242.47 54.79 241.81 54.07 241.81 52.37ZM282.54 52.37L282.54 49.69L284.67 49.69L284.67 48.64L282.54 48.64L282.54 47.07L282.08 47.07L279.95 49.22L279.95 49.69L281.42 49.69L281.42 52.37C281.42 54.68 282.37 55.85 284.67 55.85L284.67 54.79C283.2 54.79 282.54 54.07 282.54 52.37ZM107.85 48.43C105.75 48.43 104.17 50.01 104.17 52.16C104.17 54.27 105.75 55.85 107.85 55.85C110.01 55.85 111.58 54.34 111.58 52.16C111.58 49.94 110.01 48.43 107.85 48.43ZM117.54 49.61L117.54 48.43C116.07 48.43 114.91 49.36 114.32 50.87L114.17 48.64L113.2 48.64L113.2 55.64L114.32 55.64L114.32 53.65C114.32 51.16 115.58 49.61 117.54 49.61ZM119.48 52.46L125.54 52.46C125.54 52.35 125.56 52.25 125.56 52.16C125.56 49.94 124.06 48.43 121.93 48.43C119.85 48.43 118.35 50.01 118.35 52.16C118.35 54.27 119.87 55.85 121.93 55.85C123.5 55.85 124.75 55.01 125.32 53.65L124.17 53.65C123.71 54.45 122.91 54.96 121.93 54.96C120.6 54.96 119.61 53.91 119.48 52.46ZM128.35 55.64L128.35 52.18C128.35 50.57 129.21 49.48 130.47 49.48C131.75 49.48 132.59 50.56 132.59 52.18L132.59 55.64L133.71 55.64L133.71 52.18C133.71 50.57 134.58 49.48 135.81 49.48C137.07 49.48 137.94 50.56 137.94 52.18L137.94 55.64L139.06 55.64L139.06 52.18C139.06 49.99 137.86 48.43 136.15 48.43C134.92 48.43 133.91 49.24 133.45 50.5C133.01 49.23 132.05 48.43 130.8 48.43C129.74 48.43 128.86 49.02 128.34 49.99L128.2 48.64L127.23 48.64L127.23 55.64L128.35 55.64ZM149.18 48.64L148.22 48.64L148.22 58.44L149.34 58.44L149.34 54.26C149.91 55.26 150.92 55.85 152.08 55.85C154 55.85 155.41 54.27 155.41 52.13C155.41 50.01 153.99 48.43 152.08 48.43C150.91 48.43 149.91 49.03 149.32 50.03L149.18 48.64ZM159.74 55.85C161.36 55.85 162.5 54.96 162.5 53.78C162.5 50.78 157.85 52.48 157.85 50.48C157.85 49.8 158.59 49.27 159.49 49.27C160.73 49.27 161.33 49.87 161.39 50.64L162.43 50.64C162.31 49.26 161.22 48.43 159.5 48.43C157.88 48.43 156.77 49.36 156.77 50.49C156.77 53.3 161.43 51.72 161.43 53.79C161.43 54.47 160.7 55 159.75 55C158.49 55 157.76 54.54 157.61 53.67L156.55 53.67C156.71 55.1 157.96 55.85 159.74 55.85ZM174.19 55.64L174.19 52.18C174.19 50.57 175.05 49.48 176.31 49.48C177.6 49.48 178.44 50.56 178.44 52.18L178.44 55.64L179.56 55.64L179.56 52.18C179.56 50.57 180.42 49.48 181.66 49.48C182.92 49.48 183.78 50.56 183.78 52.18L183.78 55.64L184.9 55.64L184.9 52.18C184.9 49.99 183.7 48.43 181.99 48.43C180.76 48.43 179.75 49.24 179.29 50.5C178.86 49.23 177.89 48.43 176.64 48.43C175.58 48.43 174.7 49.02 174.18 49.99L174.04 48.64L173.07 48.64L173.07 55.64L174.19 55.64ZM202.67 48.43C200.57 48.43 198.98 50.01 198.98 52.16C198.98 54.27 200.57 55.85 202.67 55.85C204.82 55.85 206.39 54.34 206.39 52.16C206.39 49.94 204.82 48.43 202.67 48.43ZM214.51 48.43C212.41 48.43 210.82 50.01 210.82 52.16C210.82 54.27 212.41 55.85 214.51 55.85C216.66 55.85 218.23 54.34 218.23 52.16C218.23 49.94 216.66 48.43 214.51 48.43ZM224.2 49.61L224.2 48.43C222.73 48.43 221.57 49.36 220.98 50.87L220.82 48.64L219.86 48.64L219.86 55.64L220.98 55.64L220.98 53.65C220.98 51.16 222.24 49.61 224.2 49.61ZM231.86 55.85C233.48 55.85 234.62 54.96 234.62 53.78C234.62 50.78 229.97 52.48 229.97 50.48C229.97 49.8 230.71 49.27 231.61 49.27C232.85 49.27 233.45 49.87 233.51 50.64L234.55 50.64C234.43 49.26 233.34 48.43 231.62 48.43C230 48.43 228.89 49.36 228.89 50.49C228.89 53.3 233.55 51.72 233.55 53.79C233.55 54.47 232.82 55 231.87 55C230.61 55 229.88 54.54 229.73 53.67L228.67 53.67C228.83 55.1 230.08 55.85 231.86 55.85ZM254.94 55.64L255.91 55.64L255.91 48.64L254.94 48.64L254.79 50.08C254.23 49.05 253.23 48.43 252.04 48.43C250.12 48.43 248.67 50.01 248.67 52.16C248.67 54.27 250.12 55.85 252.04 55.85C253.23 55.85 254.24 55.24 254.8 54.2L254.94 55.64ZM259.16 55.64L259.16 52.18C259.16 50.57 260.02 49.48 261.28 49.48C262.57 49.48 263.41 50.56 263.41 52.18L263.41 55.64L264.53 55.64L264.53 52.18C264.53 50.57 265.39 49.48 266.63 49.48C267.89 49.48 268.75 50.56 268.75 52.18L268.75 55.64L269.87 55.64L269.87 52.18C269.87 49.99 268.67 48.43 266.96 48.43C265.73 48.43 264.72 49.24 264.26 50.5C263.83 49.23 262.86 48.43 261.61 48.43C260.55 48.43 259.67 49.02 259.15 49.99L259.01 48.64L258.04 48.64L258.04 55.64L259.16 55.64ZM272.7 52.46L278.76 52.46C278.76 52.35 278.78 52.25 278.78 52.16C278.78 49.94 277.28 48.43 275.15 48.43C273.07 48.43 271.57 50.01 271.57 52.16C271.57 54.27 273.09 55.85 275.15 55.85C276.72 55.85 277.97 55.01 278.54 53.65L277.39 53.65C276.93 54.45 276.13 54.96 275.15 54.96C273.82 54.96 272.83 53.91 272.7 52.46ZM144.83 55.64L145.95 55.64L145.95 48.64L144.83 48.64L144.83 55.64ZM169.79 48.64L169.79 52.1C169.79 53.7 168.86 54.79 167.51 54.79C166.15 54.79 165.25 53.71 165.25 52.1L165.25 48.64L164.13 48.64L164.13 52.1C164.13 54.28 165.39 55.85 167.17 55.85C168.3 55.85 169.26 55.24 169.8 54.26L169.94 55.64L170.91 55.64L170.91 48.64L169.79 48.64ZM236.35 55.64L237.47 55.64L237.47 48.64L236.35 48.64L236.35 55.64ZM124.42 51.82L119.48 51.82C119.61 50.38 120.6 49.36 121.93 49.36C123.32 49.36 124.3 50.35 124.42 51.82ZM277.64 51.82L272.7 51.82C272.83 50.38 273.82 49.36 275.15 49.36C276.54 49.36 277.52 50.35 277.64 51.82ZM151.79 49.44C153.23 49.44 154.29 50.57 154.29 52.14C154.29 53.71 153.23 54.83 151.79 54.83C150.35 54.83 149.34 53.72 149.34 52.14C149.34 50.55 150.32 49.44 151.79 49.44ZM193.71 54.83C192.28 54.83 191.2 53.7 191.2 52.14C191.2 50.56 192.27 49.44 193.71 49.44C195.17 49.44 196.17 50.56 196.17 52.14C196.17 53.74 195.18 54.83 193.71 54.83ZM252.34 54.83C250.87 54.83 249.79 53.7 249.79 52.14C249.79 50.56 250.84 49.44 252.34 49.44C253.78 49.44 254.79 50.56 254.79 52.14C254.79 53.74 253.78 54.83 252.34 54.83ZM107.85 54.79C106.4 54.79 105.29 53.67 105.29 52.14C105.29 50.62 106.38 49.48 107.85 49.48C109.39 49.48 110.46 50.56 110.46 52.14C110.46 53.72 109.41 54.79 107.85 54.79ZM202.67 54.79C201.21 54.79 200.1 53.67 200.1 52.14C200.1 50.62 201.2 49.48 202.67 49.48C204.21 49.48 205.27 50.56 205.27 52.14C205.27 53.72 204.22 54.79 202.67 54.79ZM214.51 54.79C213.05 54.79 211.94 53.67 211.94 52.14C211.94 50.62 213.04 49.48 214.51 49.48C216.05 49.48 217.11 50.56 217.11 52.14C217.11 53.72 216.06 54.79 214.51 54.79ZM286.34 54.58L286.01 57.64L286.96 57.64L287.59 54.58L286.34 54.58ZM202.55 63.63C202.2 63.63 201.96 63.87 201.96 64.23C201.96 64.58 202.2 64.82 202.55 64.82C202.92 64.82 203.15 64.58 203.15 64.23C203.15 63.87 202.92 63.63 202.55 63.63ZM214.91 63.63C214.56 63.63 214.32 63.87 214.32 64.23C214.32 64.58 214.56 64.82 214.91 64.82C215.28 64.82 215.51 64.58 215.51 64.23C215.51 63.87 215.28 63.63 214.91 63.63ZM233.82 63.63C233.47 63.63 233.23 63.87 233.23 64.23C233.23 64.58 233.47 64.82 233.82 64.82C234.18 64.82 234.42 64.58 234.42 64.23C234.42 63.87 234.18 63.63 233.82 63.63ZM270.31 63.63C269.96 63.63 269.72 63.87 269.72 64.23C269.72 64.58 269.96 64.82 270.31 64.82C270.67 64.82 270.91 64.58 270.91 64.23C270.91 63.87 270.67 63.63 270.31 63.63ZM198.75 73.64L199.73 73.64L199.73 63.84L198.61 63.84L198.61 68.04C198.03 67.03 197.03 66.43 195.85 66.43C193.93 66.43 192.52 68.01 192.52 70.16C192.52 72.27 193.95 73.85 195.85 73.85C197.03 73.85 198.05 73.25 198.62 72.23L198.75 73.64ZM267.49 73.64L267.49 63.84L266.37 63.84L266.37 73.64L267.49 73.64ZM147.76 70.37L147.76 67.69L149.89 67.69L149.89 66.64L147.76 66.64L147.76 65.07L147.3 65.07L145.17 67.22L145.17 67.69L146.64 67.69L146.64 70.37C146.64 72.68 147.59 73.85 149.89 73.85L149.89 72.79C148.42 72.79 147.76 72.07 147.76 70.37ZM162.05 70.37L162.05 67.69L164.18 67.69L164.18 66.64L162.05 66.64L162.05 65.07L161.59 65.07L159.46 67.22L159.46 67.69L160.93 67.69L160.93 70.37C160.93 72.68 161.88 73.85 164.18 73.85L164.18 72.79C162.71 72.79 162.05 72.07 162.05 70.37ZM275.21 70.37L275.21 67.69L277.34 67.69L277.34 66.64L275.21 66.64L275.21 65.07L274.75 65.07L272.62 67.22L272.62 67.69L274.09 67.69L274.09 70.37C274.09 72.68 275.04 73.85 277.34 73.85L277.34 72.79C275.87 72.79 275.21 72.07 275.21 70.37ZM99.27 72.83C97.8 72.83 96.72 71.7 96.72 70.14C96.72 68.6 97.8 67.44 99.27 67.44C100.41 67.44 101.32 68.11 101.7 69.09L102.86 69.09C102.4 67.48 101.04 66.43 99.27 66.43C97.15 66.43 95.6 68.01 95.6 70.16C95.6 72.27 97.17 73.85 99.27 73.85C101.06 73.85 102.42 72.79 102.88 71.18L101.72 71.18C101.35 72.17 100.43 72.83 99.27 72.83ZM107.54 66.43C105.44 66.43 103.86 68.01 103.86 70.16C103.86 72.27 105.44 73.85 107.54 73.85C109.69 73.85 111.26 72.34 111.26 70.16C111.26 67.94 109.69 66.43 107.54 66.43ZM114.01 73.64L114.01 70.18C114.01 68.57 114.93 67.48 116.28 67.48C117.65 67.48 118.55 68.56 118.55 70.18L118.55 73.64L119.67 73.64L119.67 70.18C119.67 67.99 118.42 66.43 116.61 66.43C115.47 66.43 114.54 67.03 114 68.03L113.86 66.64L112.89 66.64L112.89 73.64L114.01 73.64ZM124.55 73.85C126.17 73.85 127.31 72.96 127.31 71.78C127.31 68.78 122.66 70.48 122.66 68.48C122.66 67.8 123.4 67.27 124.3 67.27C125.54 67.27 126.14 67.87 126.2 68.64L127.24 68.64C127.12 67.26 126.03 66.43 124.31 66.43C122.69 66.43 121.58 67.36 121.58 68.49C121.58 71.3 126.24 69.72 126.24 71.79C126.24 72.47 125.51 73 124.56 73C123.3 73 122.57 72.54 122.42 71.67L121.36 71.67C121.52 73.1 122.77 73.85 124.55 73.85ZM129.49 70.46L135.55 70.46C135.55 70.35 135.57 70.25 135.57 70.16C135.57 67.94 134.07 66.43 131.94 66.43C129.85 66.43 128.36 68.01 128.36 70.16C128.36 72.27 129.88 73.85 131.94 73.85C133.51 73.85 134.75 73.01 135.33 71.65L134.18 71.65C133.72 72.45 132.92 72.96 131.94 72.96C130.61 72.96 129.62 71.91 129.49 70.46ZM140.43 72.83C138.96 72.83 137.88 71.7 137.88 70.14C137.88 68.6 138.96 67.44 140.43 67.44C141.58 67.44 142.49 68.11 142.87 69.09L144.03 69.09C143.57 67.48 142.21 66.43 140.43 66.43C138.32 66.43 136.76 68.01 136.76 70.16C136.76 72.27 138.33 73.85 140.43 73.85C142.22 73.85 143.58 72.79 144.04 71.18L142.88 71.18C142.52 72.17 141.59 72.83 140.43 72.83ZM152.21 70.46L158.27 70.46C158.27 70.35 158.29 70.25 158.29 70.16C158.29 67.94 156.79 66.43 154.66 66.43C152.58 66.43 151.08 68.01 151.08 70.16C151.08 72.27 152.6 73.85 154.66 73.85C156.23 73.85 157.48 73.01 158.05 71.65L156.9 71.65C156.44 72.45 155.64 72.96 154.66 72.96C153.33 72.96 152.34 71.91 152.21 70.46ZM179.18 67.61L179.18 66.43C177.71 66.43 176.55 67.36 175.96 68.87L175.8 66.64L174.84 66.64L174.84 73.64L175.96 73.64L175.96 71.65C175.96 69.16 177.22 67.61 179.18 67.61ZM189.9 73.64L190.87 73.64L190.87 66.64L189.9 66.64L189.75 68.08C189.19 67.05 188.19 66.43 187 66.43C185.09 66.43 183.63 68.01 183.63 70.16C183.63 72.27 185.09 73.85 187 73.85C188.19 73.85 189.2 73.24 189.76 72.2L189.9 73.64ZM206.35 66.64L205.38 66.64L205.38 76.44L206.5 76.44L206.5 72.26C207.07 73.26 208.08 73.85 209.24 73.85C211.16 73.85 212.58 72.27 212.58 70.13C212.58 68.01 211.15 66.43 209.24 66.43C208.07 66.43 207.07 67.03 206.49 68.03L206.35 66.64ZM220.44 73.85C222.07 73.85 223.2 72.96 223.2 71.78C223.2 68.78 218.55 70.48 218.55 68.48C218.55 67.8 219.29 67.27 220.19 67.27C221.44 67.27 222.04 67.87 222.09 68.64L223.13 68.64C223.02 67.26 221.93 66.43 220.2 66.43C218.58 66.43 217.47 67.36 217.47 68.49C217.47 71.3 222.14 69.72 222.14 71.79C222.14 72.47 221.41 73 220.46 73C219.2 73 218.47 72.54 218.31 71.67L217.25 71.67C217.42 73.1 218.66 73.85 220.44 73.85ZM227.92 72.83C226.45 72.83 225.37 71.7 225.37 70.14C225.37 68.6 226.45 67.44 227.92 67.44C229.07 67.44 229.98 68.11 230.35 69.09L231.52 69.09C231.05 67.48 229.7 66.43 227.92 66.43C225.8 66.43 224.25 68.01 224.25 70.16C224.25 72.27 225.82 73.85 227.92 73.85C229.71 73.85 231.07 72.79 231.53 71.18L230.37 71.18C230 72.17 229.08 72.83 227.92 72.83ZM237.75 73.64L237.75 70.18C237.75 68.57 238.68 67.48 240.02 67.48C241.39 67.48 242.29 68.56 242.29 70.18L242.29 73.64L243.41 73.64L243.41 70.18C243.41 67.99 242.16 66.43 240.36 66.43C239.21 66.43 238.29 67.03 237.74 68.03L237.6 66.64L236.63 66.64L236.63 73.64L237.75 73.64ZM251.18 72.14L251.18 73.46C251.18 75.04 250.2 76.13 248.8 76.13C247.69 76.13 246.81 75.5 246.43 74.48L245.32 74.48C245.74 76.11 247.07 77.17 248.8 77.17C250.85 77.17 252.3 75.62 252.3 73.46L252.3 66.64L251.32 66.64L251.19 68.03C250.62 67.02 249.61 66.43 248.42 66.43C246.5 66.43 245.09 67.99 245.09 70.09C245.09 72.16 246.5 73.74 248.42 73.74C249.59 73.74 250.6 73.14 251.18 72.14ZM258.62 70.46L264.68 70.46C264.68 70.35 264.7 70.25 264.7 70.16C264.7 67.94 263.2 66.43 261.07 66.43C258.98 66.43 257.49 68.01 257.49 70.16C257.49 72.27 259.01 73.85 261.07 73.85C262.64 73.85 263.88 73.01 264.46 71.65L263.31 71.65C262.85 72.45 262.05 72.96 261.07 72.96C259.74 72.96 258.75 71.91 258.62 70.46ZM171.55 66.64L171.55 70.1C171.55 71.7 170.63 72.79 169.27 72.79C167.91 72.79 167.02 71.71 167.02 70.1L167.02 66.64L165.9 66.64L165.9 70.1C165.9 72.28 167.16 73.85 168.93 73.85C170.07 73.85 171.02 73.24 171.57 72.26L171.71 73.64L172.67 73.64L172.67 66.64L171.55 66.64ZM201.99 73.64L203.11 73.64L203.11 66.64L201.99 66.64L201.99 73.64ZM214.35 73.64L215.47 73.64L215.47 66.64L214.35 66.64L214.35 73.64ZM233.26 73.64L234.38 73.64L234.38 66.64L233.26 66.64L233.26 73.64ZM269.75 73.64L270.87 73.64L270.87 66.64L269.75 66.64L269.75 73.64ZM134.43 69.82L129.49 69.82C129.62 68.38 130.61 67.36 131.94 67.36C133.33 67.36 134.31 68.35 134.43 69.82ZM157.15 69.82L152.21 69.82C152.34 68.38 153.33 67.36 154.66 67.36C156.05 67.36 157.03 68.35 157.15 69.82ZM263.56 69.82L258.62 69.82C258.75 68.38 259.74 67.36 261.07 67.36C262.46 67.36 263.44 68.35 263.56 69.82ZM187.3 72.83C185.83 72.83 184.75 71.7 184.75 70.14C184.75 68.56 185.8 67.44 187.3 67.44C188.74 67.44 189.75 68.56 189.75 70.14C189.75 71.74 188.74 72.83 187.3 72.83ZM196.14 72.83C194.72 72.83 193.64 71.7 193.64 70.14C193.64 68.56 194.7 67.44 196.14 67.44C197.6 67.44 198.61 68.56 198.61 70.14C198.61 71.74 197.61 72.83 196.14 72.83ZM208.95 67.44C210.39 67.44 211.46 68.57 211.46 70.14C211.46 71.71 210.39 72.83 208.95 72.83C207.51 72.83 206.5 71.72 206.5 70.14C206.5 68.55 207.48 67.44 208.95 67.44ZM248.71 72.7C247.27 72.7 246.21 71.61 246.21 70.09C246.21 68.56 247.26 67.44 248.71 67.44C250.15 67.44 251.18 68.53 251.18 70.09C251.18 71.63 250.18 72.7 248.71 72.7ZM107.54 72.79C106.08 72.79 104.98 71.67 104.98 70.14C104.98 68.62 106.07 67.48 107.54 67.48C109.08 67.48 110.14 68.56 110.14 70.14C110.14 71.72 109.09 72.79 107.54 72.79Z" fill="#F6FFD2" fill-opacity="1.000000" fill-rule="evenodd"/>
		<g filter="url(#filter_9_363_dd)">
			<path id="Vector" d="M302 17.57L302 40.83C302 41.15 302.42 41.26 302.58 40.98L314.26 20.87C316.81 16.49 313.64 11 308.57 11C304.94 11 302 13.94 302 17.57Z" fill="#FFFFFF" fill-opacity="1.000000" fill-rule="nonzero"/>
		</g>
	</g>
</svg>
