<svg width="326.162964" height="119.000000" viewBox="0 0 326.163 119" fill="none" xmlns="http://www.w3.org/2000/svg" xmlns:xlink="http://www.w3.org/1999/xlink">
	<desc>
			Created with Pixso.
	</desc>
	<defs>
		<filter id="filter_9_334_dd" x="0.000000" y="10.000000" width="316.000000" height="109.000000" filterUnits="userSpaceOnUse" color-interpolation-filters="sRGB">
			<feFlood flood-opacity="0" result="BackgroundImageFix"/>
			<feColorMatrix in="SourceAlpha" type="matrix" values="0 0 0 0 0 0 0 0 0 0 0 0 0 0 0 0 0 0 127 0" result="hardAlpha"/>
			<feOffset dx="0" dy="4"/>
			<feGaussianBlur stdDeviation="5"/>
			<feComposite in2="hardAlpha" operator="out" k2="-1" k3="1"/>
			<feColorMatrix type="matrix" values="0 0 0 0 1 0 0 0 0 1 0 0 0 0 1 0 0 0 0.35 0"/>
			<feBlend mode="normal" in2="BackgroundImageFix" result="effect_dropShadow_1"/>
			<feBlend mode="normal" in="SourceGraphic" in2="effect_dropShadow_1" result="shape"/>
		</filter>
		<filter id="filter_9_335_dd" x="15.000000" y="21.000000" width="286.000000" height="79.000000" filterUnits="userSpaceOnUse" color-interpolation-filters="sRGB">
			<feFlood flood-opacity="0" result="BackgroundImageFix"/>
			<feGaussianBlur in="BackgroundImage" stdDeviation="5"/>
			<feComposite in2="SourceAlpha" operator="in" result="effect_backgroundBlur_1"/>
			<feBlend mode="normal" in="SourceGraphic" in2="effect_backgroundBlur_1" result="shape"/>
		</filter>
		<filter id="filter_9_357_dd" x="41.000000" y="48.000000" width="29.000000" height="41.000000" filterUnits="userSpaceOnUse" color-interpolation-filters="sRGB">
			<feFlood flood-opacity="0" result="BackgroundImageFix"/>
			<feColorMatrix in="SourceAlpha" type="matrix" values="0 0 0 0 0 0 0 0 0 0 0 0 0 0 0 0 0 0 127 0" result="hardAlpha"/>
			<feOffset dx="0" dy="10"/>
			<feGaussianBlur stdDeviation="2"/>
			<feComposite in2="hardAlpha" operator="out" k2="-1" k3="1"/>
			<feColorMatrix type="matrix" values="0 0 0 0 1 0 0 0 0 1 0 0 0 0 1 0 0 0 0.15 0"/>
			<feBlend mode="normal" in2="BackgroundImageFix" result="effect_dropShadow_1"/>
			<feBlend mode="normal" in="SourceGraphic" in2="effect_dropShadow_1" result="shape"/>
		</filter>
		<filter id="filter_9_366_dd" x="283.000000" y="0.000000" width="43.162964" height="60.145752" filterUnits="userSpaceOnUse" color-interpolation-filters="sRGB">
			<feFlood flood-opacity="0" result="BackgroundImageFix"/>
			<feColorMatrix in="SourceAlpha" type="matrix" values="0 0 0 0 0 0 0 0 0 0 0 0 0 0 0 0 0 0 127 0" result="hardAlpha"/>
			<feOffset dx="0" dy="4"/>
			<feGaussianBlur stdDeviation="5"/>
			<feComposite in2="hardAlpha" operator="out" k2="-1" k3="1"/>
			<feColorMatrix type="matrix" values="0 0 0 0 1 0 0 0 0 1 0 0 0 0 1 0 0 0 0.35 0"/>
			<feBlend mode="normal" in2="BackgroundImageFix" result="effect_dropShadow_1"/>
			<feBlend mode="normal" in="SourceGraphic" in2="effect_dropShadow_1" result="shape"/>
		</filter>
	</defs>
	<g filter="url(#filter_9_334_dd)">
		<g filter="url(#filter_9_335_dd)">
			<path id="image 6" d="M50 21L301 21L301 65C301 84.33 285.32 100 266 100L15 100L15 56C15 36.66 30.67 21 50 21Z" fill="#FFFFFF" fill-opacity="0.300000" fill-rule="evenodd"/>
			<path id="image 6" d="M301 21L301 65C301 84.33 285.32 100 266 100L15 100L15 56C15 36.66 30.67 21 50 21L301 21ZM298 24L298 65C298 82.67 283.67 97 266 97L18 97L18 56C18 38.32 32.32 24 50 24L298 24Z" fill="#FFFFFF" fill-opacity="1.000000" fill-rule="evenodd"/>
		</g>
	</g>
	<circle id="Ellipse 1" cx="55.500000" cy="60.500000" r="25.500000" fill="#5E7600" fill-opacity="1.000000"/>
	<circle id="Ellipse 1" cx="55.500000" cy="60.500000" r="25.000000" stroke="#FFFFFF" stroke-opacity="1.000000" stroke-width="1.000000"/>
	<g filter="url(#filter_9_357_dd)">
		<path id="3" d="M59.24 50.79L48.28 50.79L48.28 48L63.01 48L63.01 50.34L56.16 57.96L56.43 57.96C60.5 57.96 64 60.23 64 65.23C64 69.67 60.53 73 55.89 73C50.93 73 47 68.8 47 63.38L49.71 63.38C49.71 67.37 52.36 70.34 55.82 70.34C58.94 70.34 61.28 68.13 61.28 65.27C61.28 62.23 59.14 60.16 55.89 60.16L54.15 60.16L52.7 58.45L59.24 50.79Z" fill="#F6FFD2" fill-opacity="1.000000" fill-rule="nonzero"/>
	</g>
	<path id="Lorem ipsum dolor sit amet, consectetur adipiscing elit" d="M141.39 45.63C141.04 45.63 140.8 45.87 140.8 46.23C140.8 46.58 141.04 46.82 141.39 46.82C141.75 46.82 141.99 46.58 141.99 46.23C141.99 45.87 141.75 45.63 141.39 45.63ZM232.91 45.63C232.56 45.63 232.32 45.87 232.32 46.23C232.32 46.58 232.56 46.82 232.91 46.82C233.27 46.82 233.51 46.58 233.51 46.23C233.51 45.87 233.27 45.63 232.91 45.63ZM92.07 45.84L92.07 55.64L98.64 55.64L98.64 54.58L93.19 54.58L93.19 45.84L92.07 45.84ZM192.31 55.64L193.29 55.64L193.29 45.84L192.17 45.84L192.17 50.04C191.6 49.03 190.59 48.43 189.42 48.43C187.5 48.43 186.08 50.01 186.08 52.16C186.08 54.27 187.51 55.85 189.42 55.85C190.59 55.85 191.61 55.25 192.19 54.23L192.31 55.64ZM205.14 55.64L205.14 45.84L204.02 45.84L204.02 55.64L205.14 55.64ZM237.81 52.37L237.81 49.69L239.94 49.69L239.94 48.64L237.81 48.64L237.81 47.07L237.35 47.07L235.22 49.22L235.22 49.69L236.69 49.69L236.69 52.37C236.69 54.68 237.64 55.85 239.94 55.85L239.94 54.79C238.47 54.79 237.81 54.07 237.81 52.37ZM278.54 52.37L278.54 49.69L280.67 49.69L280.67 48.64L278.54 48.64L278.54 47.07L278.08 47.07L275.95 49.22L275.95 49.69L277.42 49.69L277.42 52.37C277.42 54.68 278.37 55.85 280.67 55.85L280.67 54.79C279.2 54.79 278.54 54.07 278.54 52.37ZM103.85 48.43C101.75 48.43 100.17 50.01 100.17 52.16C100.17 54.27 101.75 55.85 103.85 55.85C106.01 55.85 107.58 54.34 107.58 52.16C107.58 49.94 106.01 48.43 103.85 48.43ZM113.54 49.61L113.54 48.43C112.07 48.43 110.91 49.36 110.32 50.87L110.17 48.64L109.2 48.64L109.2 55.64L110.32 55.64L110.32 53.65C110.32 51.16 111.58 49.61 113.54 49.61ZM115.48 52.46L121.54 52.46C121.54 52.35 121.56 52.25 121.56 52.16C121.56 49.94 120.06 48.43 117.93 48.43C115.85 48.43 114.35 50.01 114.35 52.16C114.35 54.27 115.87 55.85 117.93 55.85C119.5 55.85 120.75 55.01 121.32 53.65L120.17 53.65C119.71 54.45 118.91 54.96 117.93 54.96C116.6 54.96 115.61 53.91 115.48 52.46ZM124.35 55.64L124.35 52.18C124.35 50.57 125.21 49.48 126.47 49.48C127.75 49.48 128.59 50.56 128.59 52.18L128.59 55.64L129.71 55.64L129.71 52.18C129.71 50.57 130.58 49.48 131.81 49.48C133.07 49.48 133.94 50.56 133.94 52.18L133.94 55.64L135.06 55.64L135.06 52.18C135.06 49.99 133.86 48.43 132.15 48.43C130.92 48.43 129.91 49.24 129.45 50.5C129.01 49.23 128.05 48.43 126.8 48.43C125.74 48.43 124.86 49.02 124.34 49.99L124.2 48.64L123.23 48.64L123.23 55.64L124.35 55.64ZM145.18 48.64L144.22 48.64L144.22 58.44L145.34 58.44L145.34 54.26C145.91 55.26 146.92 55.85 148.08 55.85C150 55.85 151.41 54.27 151.41 52.13C151.41 50.01 149.99 48.43 148.08 48.43C146.91 48.43 145.91 49.03 145.32 50.03L145.18 48.64ZM155.74 55.85C157.36 55.85 158.5 54.96 158.5 53.78C158.5 50.78 153.85 52.48 153.85 50.48C153.85 49.8 154.59 49.27 155.49 49.27C156.73 49.27 157.33 49.87 157.39 50.64L158.43 50.64C158.31 49.26 157.22 48.43 155.5 48.43C153.88 48.43 152.77 49.36 152.77 50.49C152.77 53.3 157.43 51.72 157.43 53.79C157.43 54.47 156.7 55 155.75 55C154.49 55 153.76 54.54 153.61 53.67L152.55 53.67C152.71 55.1 153.96 55.85 155.74 55.85ZM170.19 55.64L170.19 52.18C170.19 50.57 171.05 49.48 172.31 49.48C173.6 49.48 174.44 50.56 174.44 52.18L174.44 55.64L175.56 55.64L175.56 52.18C175.56 50.57 176.42 49.48 177.66 49.48C178.92 49.48 179.78 50.56 179.78 52.18L179.78 55.64L180.9 55.64L180.9 52.18C180.9 49.99 179.7 48.43 177.99 48.43C176.76 48.43 175.75 49.24 175.29 50.5C174.86 49.23 173.89 48.43 172.64 48.43C171.58 48.43 170.7 49.02 170.18 49.99L170.04 48.64L169.07 48.64L169.07 55.64L170.19 55.64ZM198.67 48.43C196.57 48.43 194.98 50.01 194.98 52.16C194.98 54.27 196.57 55.85 198.67 55.85C200.82 55.85 202.39 54.34 202.39 52.16C202.39 49.94 200.82 48.43 198.67 48.43ZM210.51 48.43C208.41 48.43 206.82 50.01 206.82 52.16C206.82 54.27 208.41 55.85 210.51 55.85C212.66 55.85 214.23 54.34 214.23 52.16C214.23 49.94 212.66 48.43 210.51 48.43ZM220.2 49.61L220.2 48.43C218.73 48.43 217.57 49.36 216.98 50.87L216.82 48.64L215.86 48.64L215.86 55.64L216.98 55.64L216.98 53.65C216.98 51.16 218.24 49.61 220.2 49.61ZM227.86 55.85C229.48 55.85 230.62 54.96 230.62 53.78C230.62 50.78 225.97 52.48 225.97 50.48C225.97 49.8 226.71 49.27 227.61 49.27C228.85 49.27 229.45 49.87 229.51 50.64L230.55 50.64C230.43 49.26 229.34 48.43 227.62 48.43C226 48.43 224.89 49.36 224.89 50.49C224.89 53.3 229.55 51.72 229.55 53.79C229.55 54.47 228.82 55 227.87 55C226.61 55 225.88 54.54 225.73 53.67L224.67 53.67C224.83 55.1 226.08 55.85 227.86 55.85ZM250.94 55.64L251.91 55.64L251.91 48.64L250.94 48.64L250.79 50.08C250.23 49.05 249.23 48.43 248.04 48.43C246.12 48.43 244.67 50.01 244.67 52.16C244.67 54.27 246.12 55.85 248.04 55.85C249.23 55.85 250.24 55.24 250.8 54.2L250.94 55.64ZM255.16 55.64L255.16 52.18C255.16 50.57 256.02 49.48 257.28 49.48C258.57 49.48 259.41 50.56 259.41 52.18L259.41 55.64L260.53 55.64L260.53 52.18C260.53 50.57 261.39 49.48 262.63 49.48C263.89 49.48 264.75 50.56 264.75 52.18L264.75 55.64L265.87 55.64L265.87 52.18C265.87 49.99 264.67 48.43 262.96 48.43C261.73 48.43 260.72 49.24 260.26 50.5C259.83 49.23 258.86 48.43 257.61 48.43C256.55 48.43 255.67 49.02 255.15 49.99L255.01 48.64L254.04 48.64L254.04 55.64L255.16 55.64ZM268.7 52.46L274.76 52.46C274.76 52.35 274.78 52.25 274.78 52.16C274.78 49.94 273.28 48.43 271.15 48.43C269.07 48.43 267.57 50.01 267.57 52.16C267.57 54.27 269.09 55.85 271.15 55.85C272.72 55.85 273.97 55.01 274.54 53.65L273.39 53.65C272.93 54.45 272.13 54.96 271.15 54.96C269.82 54.96 268.83 53.91 268.7 52.46ZM140.83 55.64L141.95 55.64L141.95 48.64L140.83 48.64L140.83 55.64ZM165.79 48.64L165.79 52.1C165.79 53.7 164.86 54.79 163.51 54.79C162.15 54.79 161.25 53.71 161.25 52.1L161.25 48.64L160.13 48.64L160.13 52.1C160.13 54.28 161.39 55.85 163.17 55.85C164.3 55.85 165.26 55.24 165.8 54.26L165.94 55.64L166.91 55.64L166.91 48.64L165.79 48.64ZM232.35 55.64L233.47 55.64L233.47 48.64L232.35 48.64L232.35 55.64ZM120.42 51.82L115.48 51.82C115.61 50.38 116.6 49.36 117.93 49.36C119.32 49.36 120.3 50.35 120.42 51.82ZM273.64 51.82L268.7 51.82C268.83 50.38 269.82 49.36 271.15 49.36C272.54 49.36 273.52 50.35 273.64 51.82ZM147.79 49.44C149.23 49.44 150.29 50.57 150.29 52.14C150.29 53.71 149.23 54.83 147.79 54.83C146.35 54.83 145.34 53.72 145.34 52.14C145.34 50.55 146.32 49.44 147.79 49.44ZM189.71 54.83C188.28 54.83 187.2 53.7 187.2 52.14C187.2 50.56 188.27 49.44 189.71 49.44C191.17 49.44 192.17 50.56 192.17 52.14C192.17 53.74 191.18 54.83 189.71 54.83ZM248.34 54.83C246.87 54.83 245.79 53.7 245.79 52.14C245.79 50.56 246.84 49.44 248.34 49.44C249.78 49.44 250.79 50.56 250.79 52.14C250.79 53.74 249.78 54.83 248.34 54.83ZM103.85 54.79C102.4 54.79 101.29 53.67 101.29 52.14C101.29 50.62 102.38 49.48 103.85 49.48C105.39 49.48 106.46 50.56 106.46 52.14C106.46 53.72 105.41 54.79 103.85 54.79ZM198.67 54.79C197.21 54.79 196.1 53.67 196.1 52.14C196.1 50.62 197.2 49.48 198.67 49.48C200.21 49.48 201.27 50.56 201.27 52.14C201.27 53.72 200.22 54.79 198.67 54.79ZM210.51 54.79C209.05 54.79 207.94 53.67 207.94 52.14C207.94 50.62 209.04 49.48 210.51 49.48C212.05 49.48 213.11 50.56 213.11 52.14C213.11 53.72 212.06 54.79 210.51 54.79ZM282.34 54.58L282.01 57.64L282.96 57.64L283.59 54.58L282.34 54.58ZM198.55 63.63C198.2 63.63 197.96 63.87 197.96 64.23C197.96 64.58 198.2 64.82 198.55 64.82C198.92 64.82 199.15 64.58 199.15 64.23C199.15 63.87 198.92 63.63 198.55 63.63ZM210.91 63.63C210.56 63.63 210.32 63.87 210.32 64.23C210.32 64.58 210.56 64.82 210.91 64.82C211.28 64.82 211.51 64.58 211.51 64.23C211.51 63.87 211.28 63.63 210.91 63.63ZM229.82 63.63C229.47 63.63 229.23 63.87 229.23 64.23C229.23 64.58 229.47 64.82 229.82 64.82C230.18 64.82 230.42 64.58 230.42 64.23C230.42 63.87 230.18 63.63 229.82 63.63ZM266.31 63.63C265.96 63.63 265.72 63.87 265.72 64.23C265.72 64.58 265.96 64.82 266.31 64.82C266.67 64.82 266.91 64.58 266.91 64.23C266.91 63.87 266.67 63.63 266.31 63.63ZM194.75 73.64L195.73 73.64L195.73 63.84L194.61 63.84L194.61 68.04C194.03 67.03 193.03 66.43 191.85 66.43C189.93 66.43 188.52 68.01 188.52 70.16C188.52 72.27 189.95 73.85 191.85 73.85C193.03 73.85 194.05 73.25 194.62 72.23L194.75 73.64ZM263.49 73.64L263.49 63.84L262.37 63.84L262.37 73.64L263.49 73.64ZM143.76 70.37L143.76 67.69L145.89 67.69L145.89 66.64L143.76 66.64L143.76 65.07L143.3 65.07L141.17 67.22L141.17 67.69L142.64 67.69L142.64 70.37C142.64 72.68 143.59 73.85 145.89 73.85L145.89 72.79C144.42 72.79 143.76 72.07 143.76 70.37ZM158.05 70.37L158.05 67.69L160.18 67.69L160.18 66.64L158.05 66.64L158.05 65.07L157.59 65.07L155.46 67.22L155.46 67.69L156.93 67.69L156.93 70.37C156.93 72.68 157.88 73.85 160.18 73.85L160.18 72.79C158.71 72.79 158.05 72.07 158.05 70.37ZM271.21 70.37L271.21 67.69L273.34 67.69L273.34 66.64L271.21 66.64L271.21 65.07L270.75 65.07L268.62 67.22L268.62 67.69L270.09 67.69L270.09 70.37C270.09 72.68 271.04 73.85 273.34 73.85L273.34 72.79C271.87 72.79 271.21 72.07 271.21 70.37ZM95.27 72.83C93.8 72.83 92.72 71.7 92.72 70.14C92.72 68.6 93.8 67.44 95.27 67.44C96.41 67.44 97.32 68.11 97.7 69.09L98.86 69.09C98.4 67.48 97.04 66.43 95.27 66.43C93.15 66.43 91.6 68.01 91.6 70.16C91.6 72.27 93.17 73.85 95.27 73.85C97.06 73.85 98.42 72.79 98.88 71.18L97.72 71.18C97.35 72.17 96.43 72.83 95.27 72.83ZM103.54 66.43C101.44 66.43 99.85 68.01 99.85 70.16C99.85 72.27 101.44 73.85 103.54 73.85C105.69 73.85 107.26 72.34 107.26 70.16C107.26 67.94 105.69 66.43 103.54 66.43ZM110.01 73.64L110.01 70.18C110.01 68.57 110.93 67.48 112.28 67.48C113.65 67.48 114.55 68.56 114.55 70.18L114.55 73.64L115.67 73.64L115.67 70.18C115.67 67.99 114.42 66.43 112.61 66.43C111.47 66.43 110.54 67.03 110 68.03L109.86 66.64L108.89 66.64L108.89 73.64L110.01 73.64ZM120.55 73.85C122.17 73.85 123.31 72.96 123.31 71.78C123.31 68.78 118.66 70.48 118.66 68.48C118.66 67.8 119.4 67.27 120.3 67.27C121.54 67.27 122.14 67.87 122.2 68.64L123.24 68.64C123.12 67.26 122.03 66.43 120.31 66.43C118.69 66.43 117.58 67.36 117.58 68.49C117.58 71.3 122.24 69.72 122.24 71.79C122.24 72.47 121.51 73 120.56 73C119.3 73 118.57 72.54 118.42 71.67L117.36 71.67C117.52 73.1 118.77 73.85 120.55 73.85ZM125.49 70.46L131.55 70.46C131.55 70.35 131.57 70.25 131.57 70.16C131.57 67.94 130.07 66.43 127.94 66.43C125.85 66.43 124.36 68.01 124.36 70.16C124.36 72.27 125.88 73.85 127.94 73.85C129.51 73.85 130.75 73.01 131.33 71.65L130.18 71.65C129.72 72.45 128.92 72.96 127.94 72.96C126.61 72.96 125.62 71.91 125.49 70.46ZM136.43 72.83C134.96 72.83 133.88 71.7 133.88 70.14C133.88 68.6 134.96 67.44 136.43 67.44C137.58 67.44 138.49 68.11 138.87 69.09L140.03 69.09C139.57 67.48 138.21 66.43 136.43 66.43C134.32 66.43 132.76 68.01 132.76 70.16C132.76 72.27 134.33 73.85 136.43 73.85C138.22 73.85 139.58 72.79 140.04 71.18L138.88 71.18C138.52 72.17 137.59 72.83 136.43 72.83ZM148.21 70.46L154.27 70.46C154.27 70.35 154.29 70.25 154.29 70.16C154.29 67.94 152.79 66.43 150.66 66.43C148.58 66.43 147.08 68.01 147.08 70.16C147.08 72.27 148.6 73.85 150.66 73.85C152.23 73.85 153.48 73.01 154.05 71.65L152.9 71.65C152.44 72.45 151.64 72.96 150.66 72.96C149.33 72.96 148.34 71.91 148.21 70.46ZM175.18 67.61L175.18 66.43C173.71 66.43 172.55 67.36 171.96 68.87L171.8 66.64L170.84 66.64L170.84 73.64L171.96 73.64L171.96 71.65C171.96 69.16 173.22 67.61 175.18 67.61ZM185.9 73.64L186.87 73.64L186.87 66.64L185.9 66.64L185.75 68.08C185.19 67.05 184.19 66.43 183 66.43C181.09 66.43 179.63 68.01 179.63 70.16C179.63 72.27 181.09 73.85 183 73.85C184.19 73.85 185.2 73.24 185.76 72.2L185.9 73.64ZM202.35 66.64L201.38 66.64L201.38 76.44L202.5 76.44L202.5 72.26C203.07 73.26 204.08 73.85 205.24 73.85C207.16 73.85 208.58 72.27 208.58 70.13C208.58 68.01 207.15 66.43 205.24 66.43C204.07 66.43 203.07 67.03 202.49 68.03L202.35 66.64ZM216.44 73.85C218.07 73.85 219.2 72.96 219.2 71.78C219.2 68.78 214.55 70.48 214.55 68.48C214.55 67.8 215.29 67.27 216.19 67.27C217.44 67.27 218.04 67.87 218.09 68.64L219.13 68.64C219.02 67.26 217.93 66.43 216.2 66.43C214.58 66.43 213.47 67.36 213.47 68.49C213.47 71.3 218.14 69.72 218.14 71.79C218.14 72.47 217.41 73 216.46 73C215.2 73 214.47 72.54 214.31 71.67L213.25 71.67C213.42 73.1 214.66 73.85 216.44 73.85ZM223.92 72.83C222.45 72.83 221.37 71.7 221.37 70.14C221.37 68.6 222.45 67.44 223.92 67.44C225.07 67.44 225.98 68.11 226.35 69.09L227.52 69.09C227.05 67.48 225.7 66.43 223.92 66.43C221.8 66.43 220.25 68.01 220.25 70.16C220.25 72.27 221.82 73.85 223.92 73.85C225.71 73.85 227.07 72.79 227.53 71.18L226.37 71.18C226 72.17 225.08 72.83 223.92 72.83ZM233.75 73.64L233.75 70.18C233.75 68.57 234.68 67.48 236.02 67.48C237.39 67.48 238.29 68.56 238.29 70.18L238.29 73.64L239.41 73.64L239.41 70.18C239.41 67.99 238.16 66.43 236.36 66.43C235.21 66.43 234.29 67.03 233.74 68.03L233.6 66.64L232.63 66.64L232.63 73.64L233.75 73.64ZM247.18 72.14L247.18 73.46C247.18 75.04 246.2 76.13 244.8 76.13C243.69 76.13 242.81 75.5 242.43 74.48L241.32 74.48C241.74 76.11 243.07 77.17 244.8 77.17C246.85 77.17 248.3 75.62 248.3 73.46L248.3 66.64L247.32 66.64L247.19 68.03C246.62 67.02 245.61 66.43 244.42 66.43C242.5 66.43 241.09 67.99 241.09 70.09C241.09 72.16 242.5 73.74 244.42 73.74C245.59 73.74 246.6 73.14 247.18 72.14ZM254.62 70.46L260.68 70.46C260.68 70.35 260.7 70.25 260.7 70.16C260.7 67.94 259.2 66.43 257.07 66.43C254.98 66.43 253.49 68.01 253.49 70.16C253.49 72.27 255.01 73.85 257.07 73.85C258.64 73.85 259.88 73.01 260.46 71.65L259.31 71.65C258.85 72.45 258.05 72.96 257.07 72.96C255.74 72.96 254.75 71.91 254.62 70.46ZM167.55 66.64L167.55 70.1C167.55 71.7 166.63 72.79 165.27 72.79C163.91 72.79 163.02 71.71 163.02 70.1L163.02 66.64L161.89 66.64L161.89 70.1C161.89 72.28 163.16 73.85 164.93 73.85C166.07 73.85 167.02 73.24 167.57 72.26L167.71 73.64L168.67 73.64L168.67 66.64L167.55 66.64ZM197.99 73.64L199.11 73.64L199.11 66.64L197.99 66.64L197.99 73.64ZM210.35 73.64L211.47 73.64L211.47 66.64L210.35 66.64L210.35 73.64ZM229.26 73.64L230.38 73.64L230.38 66.64L229.26 66.64L229.26 73.64ZM265.75 73.64L266.87 73.64L266.87 66.64L265.75 66.64L265.75 73.64ZM130.43 69.82L125.49 69.82C125.62 68.38 126.61 67.36 127.94 67.36C129.33 67.36 130.31 68.35 130.43 69.82ZM153.15 69.82L148.21 69.82C148.34 68.38 149.33 67.36 150.66 67.36C152.05 67.36 153.03 68.35 153.15 69.82ZM259.56 69.82L254.62 69.82C254.75 68.38 255.74 67.36 257.07 67.36C258.46 67.36 259.44 68.35 259.56 69.82ZM183.3 72.83C181.83 72.83 180.75 71.7 180.75 70.14C180.75 68.56 181.8 67.44 183.3 67.44C184.74 67.44 185.75 68.56 185.75 70.14C185.75 71.74 184.74 72.83 183.3 72.83ZM192.14 72.83C190.72 72.83 189.64 71.7 189.64 70.14C189.64 68.56 190.7 67.44 192.14 67.44C193.6 67.44 194.61 68.56 194.61 70.14C194.61 71.74 193.61 72.83 192.14 72.83ZM204.95 67.44C206.39 67.44 207.46 68.57 207.46 70.14C207.46 71.71 206.39 72.83 204.95 72.83C203.51 72.83 202.5 71.72 202.5 70.14C202.5 68.55 203.48 67.44 204.95 67.44ZM244.71 72.7C243.27 72.7 242.21 71.61 242.21 70.09C242.21 68.56 243.26 67.44 244.71 67.44C246.15 67.44 247.18 68.53 247.18 70.09C247.18 71.63 246.18 72.7 244.71 72.7ZM103.54 72.79C102.08 72.79 100.98 71.67 100.98 70.14C100.98 68.62 102.07 67.48 103.54 67.48C105.08 67.48 106.14 68.56 106.14 70.14C106.14 71.72 105.09 72.79 103.54 72.79Z" fill="#F6FFD2" fill-opacity="1.000000" fill-rule="evenodd"/>
	<g filter="url(#filter_9_366_dd)">
		<path id="Vector" d="M298 17.57L298 40.83C298 41.15 298.42 41.26 298.58 40.98L310.26 20.87C312.81 16.49 309.64 11 304.57 11C300.94 11 298 13.94 298 17.57Z" fill="#FFFFFF" fill-opacity="1.000000" fill-rule="nonzero"/>
	</g>
</svg>
