<?xml version="1.0" encoding="UTF-8"?>
<!DOCTYPE svg PUBLIC "-//W3C//DTD SVG 1.1//EN" "http://www.w3.org/Graphics/SVG/1.1/DTD/svg11.dtd">
<svg xmlns="http://www.w3.org/2000/svg" version="1.1" width="178px" height="159px" style="shape-rendering:geometricPrecision; text-rendering:geometricPrecision; image-rendering:optimizeQuality; fill-rule:evenodd; clip-rule:evenodd" xmlns:xlink="http://www.w3.org/1999/xlink">
<g><path style="opacity:0.033" fill="#fcfcfd" d="M 148.5,-0.5 C 149.833,-0.5 151.167,-0.5 152.5,-0.5C 153.414,2.72797 153.747,6.06131 153.5,9.5C 162.604,10.4332 168.104,15.4332 170,24.5C 170.975,39.9142 170.309,55.2475 168,70.5C 167.286,73.5945 166.286,76.5945 165,79.5C 160.645,84.3539 156.478,89.3539 152.5,94.5C 150.287,96.7739 147.621,98.2739 144.5,99C 131.325,99.6503 118.158,99.4836 105,98.5C 93.9271,97.1953 86.9271,101.862 84,112.5C 80.1724,124.318 76.1724,135.985 72,147.5C 68.9514,151.043 66.1181,154.709 63.5,158.5C 58.5,158.5 53.5,158.5 48.5,158.5C 51.8398,153.17 55.6732,148.17 60,143.5C 64.2848,132.598 68.2848,121.598 72,110.5C 77.3067,94.3649 88.4734,86.0316 105.5,85.5C 115.479,86.898 125.479,87.898 135.5,88.5C 138.673,87.7895 141.673,86.6229 144.5,85C 149.104,80.3971 152.938,75.2304 156,69.5C 156.448,61.7893 157.281,54.1226 158.5,46.5C 157.945,40.8383 157.445,35.1716 157,29.5C 155.484,22.8693 154.317,22.8693 153.5,29.5C 152.167,29.5 150.833,29.5 149.5,29.5C 149.92,27.326 149.92,25.326 149.5,23.5C 146.987,25.4771 145.654,28.1438 145.5,31.5C 145.996,33.4712 146.33,35.4712 146.5,37.5C 145.824,44.4857 145.324,51.4857 145,58.5C 143.224,68.4443 137.39,74.111 127.5,75.5C 109.957,71.4692 92.9567,72.9692 76.5,80C 73.3568,84.4444 69.8568,88.6111 66,92.5C 61.4201,104.038 57.0868,115.705 53,127.5C 50.0367,133.933 46.2034,139.766 41.5,145C 36.6783,148.217 31.3449,149.717 25.5,149.5C 16.8686,147.957 8.20198,146.623 -0.5,145.5C -0.5,141.167 -0.5,136.833 -0.5,132.5C 6.47995,133.998 13.4799,135.498 20.5,137C 25.2867,137.879 29.9534,137.545 34.5,136C 37.0464,132.41 39.2131,128.577 41,124.5C 45.7871,112.695 50.1204,100.695 54,88.5C 59.0937,83.1567 63.5937,77.3233 67.5,71C 71.284,68.4713 75.284,66.638 79.5,65.5C 84.1256,64.2372 88.7923,63.0706 93.5,62C 105.832,62.035 118.166,62.035 130.5,62C 131.717,60.3523 132.55,58.519 133,56.5C 133.415,45.4841 133.415,34.4841 133,23.5C 135.047,14.6108 140.547,9.94409 149.5,9.5C 149.658,6.09773 149.324,2.76439 148.5,-0.5 Z"/></g>
<g><path style="opacity:0.032" fill="#f8f8fc" d="M 48.5,158.5 C 32.1667,158.5 15.8333,158.5 -0.5,158.5C -0.5,154.167 -0.5,149.833 -0.5,145.5C 8.20198,146.623 16.8686,147.957 25.5,149.5C 31.3449,149.717 36.6783,148.217 41.5,145C 46.2034,139.766 50.0367,133.933 53,127.5C 57.0868,115.705 61.4201,104.038 66,92.5C 69.8568,88.6111 73.3568,84.4444 76.5,80C 92.9567,72.9692 109.957,71.4692 127.5,75.5C 137.39,74.111 143.224,68.4443 145,58.5C 145.324,51.4857 145.824,44.4857 146.5,37.5C 146.33,35.4712 145.996,33.4712 145.5,31.5C 145.654,28.1438 146.987,25.4771 149.5,23.5C 149.92,25.326 149.92,27.326 149.5,29.5C 150.833,29.5 152.167,29.5 153.5,29.5C 154.317,22.8693 155.484,22.8693 157,29.5C 157.445,35.1716 157.945,40.8383 158.5,46.5C 157.281,54.1226 156.448,61.7893 156,69.5C 152.938,75.2304 149.104,80.3971 144.5,85C 141.673,86.6229 138.673,87.7895 135.5,88.5C 125.479,87.898 115.479,86.898 105.5,85.5C 88.4734,86.0316 77.3067,94.3649 72,110.5C 68.2848,121.598 64.2848,132.598 60,143.5C 55.6732,148.17 51.8398,153.17 48.5,158.5 Z"/></g>
<g><path style="opacity:0.401" fill="#fefefe" d="M 148.5,38.5 C 149.833,38.5 151.167,38.5 152.5,38.5C 152.879,42.5762 151.879,46.2429 149.5,49.5C 148.328,49.0814 147.328,48.4147 146.5,47.5C 147.933,44.667 148.6,41.667 148.5,38.5 Z"/></g>
<g><path style="opacity:0.41" fill="#fefefe" d="M 98.5,53.5 C 100.5,53.5 102.5,53.5 104.5,53.5C 104.5,54.8333 104.5,56.1667 104.5,57.5C 101.134,57.7878 97.8004,57.9545 94.5,58C 93.6634,56.9887 93.33,55.8221 93.5,54.5C 95.4147,54.7845 97.0813,54.4511 98.5,53.5 Z"/></g>
<g><path style="opacity:0.393" fill="#fefefe" d="M 113.5,54.5 C 116.456,55.1371 119.456,55.6371 122.5,56C 124.497,57.1531 124.83,58.6531 123.5,60.5C 120.557,59.7565 117.557,59.2565 114.5,59C 113.62,57.6439 113.286,56.1439 113.5,54.5 Z"/></g>
<g><path style="opacity:0.392" fill="#fefefe" d="M 79.5,65.5 C 76.8338,65.9342 75.6671,64.9342 76,62.5C 78.5857,59.2767 81.7524,57.9434 85.5,58.5C 85.7093,59.086 86.0426,59.586 86.5,60C 83.7339,61.371 81.4006,63.2043 79.5,65.5 Z"/></g>
<g><path style="opacity:0.402" fill="#fefefe" d="M 1.5,126.5 C 5.50259,126.416 9.16926,127.416 12.5,129.5C 12.0814,130.672 11.4147,131.672 10.5,132.5C 7.60075,131.358 4.60075,130.692 1.5,130.5C 1.5,129.167 1.5,127.833 1.5,126.5 Z"/></g>
<g><path style="opacity:0.393" fill="#fefefe" d="M 20.5,130.5 C 24.1352,131.114 27.8019,131.448 31.5,131.5C 31.5,132.833 31.5,134.167 31.5,135.5C 27.7852,135.577 24.1185,135.244 20.5,134.5C 20.5,133.167 20.5,131.833 20.5,130.5 Z"/></g>
</svg>
