<svg width="334.103027" height="262.000000" viewBox="0 0 334.103 262" fill="none" xmlns="http://www.w3.org/2000/svg" xmlns:xlink="http://www.w3.org/1999/xlink">
	<desc>
			Created with Pixso.
	</desc>
	<defs>
		<filter id="filter_9_421_dd" x="0.000000" y="15.000000" width="320.000000" height="247.000000" filterUnits="userSpaceOnUse" color-interpolation-filters="sRGB">
			<feFlood flood-opacity="0" result="BackgroundImageFix"/>
			<feColorMatrix in="SourceAlpha" type="matrix" values="0 0 0 0 0 0 0 0 0 0 0 0 0 0 0 0 0 0 127 0" result="hardAlpha"/>
			<feOffset dx="0" dy="4"/>
			<feGaussianBlur stdDeviation="5"/>
			<feComposite in2="hardAlpha" operator="out" k2="-1" k3="1"/>
			<feColorMatrix type="matrix" values="0 0 0 0 1 0 0 0 0 1 0 0 0 0 1 0 0 0 0.35 0"/>
			<feBlend mode="normal" in2="BackgroundImageFix" result="effect_dropShadow_1"/>
			<feBlend mode="normal" in="SourceGraphic" in2="effect_dropShadow_1" result="shape"/>
		</filter>
		<filter id="filter_9_426_dd" x="145.000000" y="88.000000" width="25.000000" height="53.000000" filterUnits="userSpaceOnUse" color-interpolation-filters="sRGB">
			<feFlood flood-opacity="0" result="BackgroundImageFix"/>
			<feColorMatrix in="SourceAlpha" type="matrix" values="0 0 0 0 0 0 0 0 0 0 0 0 0 0 0 0 0 0 127 0" result="hardAlpha"/>
			<feOffset dx="0" dy="10"/>
			<feGaussianBlur stdDeviation="2"/>
			<feComposite in2="hardAlpha" operator="out" k2="-1" k3="1"/>
			<feColorMatrix type="matrix" values="0 0 0 0 1 0 0 0 0 1 0 0 0 0 1 0 0 0 0.15 0"/>
			<feBlend mode="normal" in2="BackgroundImageFix" result="effect_dropShadow_1"/>
			<feBlend mode="normal" in="SourceGraphic" in2="effect_dropShadow_1" result="shape"/>
		</filter>
		<filter id="filter_9_430_dd" x="288.000000" y="0.000000" width="46.103027" height="66.951843" filterUnits="userSpaceOnUse" color-interpolation-filters="sRGB">
			<feFlood flood-opacity="0" result="BackgroundImageFix"/>
			<feColorMatrix in="SourceAlpha" type="matrix" values="0 0 0 0 0 0 0 0 0 0 0 0 0 0 0 0 0 0 127 0" result="hardAlpha"/>
			<feOffset dx="0" dy="4"/>
			<feGaussianBlur stdDeviation="5"/>
			<feComposite in2="hardAlpha" operator="out" k2="-1" k3="1"/>
			<feColorMatrix type="matrix" values="0 0 0 0 1 0 0 0 0 1 0 0 0 0 1 0 0 0 0.35 0"/>
			<feBlend mode="normal" in2="BackgroundImageFix" result="effect_dropShadow_1"/>
			<feBlend mode="normal" in="SourceGraphic" in2="effect_dropShadow_1" result="shape"/>
		</filter>
	</defs>
	<g filter="url(#filter_9_421_dd)">
		<path id="image 6" d="M50 26L305 26L305 208C305 227.33 289.32 243 270 243L15 243L15 61C15 41.67 30.66 26 50 26Z" fill="#FFFFFF" fill-opacity="0.300000" fill-rule="evenodd"/>
		<path id="image 6" d="M305 26L305 208C305 227.33 289.32 243 270 243L15 243L15 61C15 41.67 30.66 26 50 26L305 26ZM302 29L302 208C302 225.67 287.67 240 270 240L18 240L18 61C18 43.32 32.32 29 50 29L302 29Z" fill="#FFFFFF" fill-opacity="1.000000" fill-rule="evenodd"/>
	</g>
	<ellipse id="Ellipse 1" cx="160.000000" cy="106.500000" rx="37.000000" ry="36.500000" fill="#5E7600" fill-opacity="1.000000"/>
	<ellipse id="Ellipse 1" cx="160.000000" cy="106.500000" rx="36.500000" ry="36.000000" stroke="#FFFFFF" stroke-opacity="1.000000" stroke-width="1.000000"/>
	<g filter="url(#filter_9_426_dd)">
		<path id="1" d="M151 95.77L151 91.64C154.85 91.54 157.96 90.27 160.73 88L164 88L164 125L160.04 125L160.04 93.44C157.52 94.92 154.46 95.66 151 95.77Z" fill="#F6FFD2" fill-opacity="1.000000" fill-rule="nonzero"/>
	</g>
	<path id="Lorem ipsum dolor sit amet, consectetur adipiscing elit" d="M113.85 167.63C113.5 167.63 113.26 167.87 113.26 168.23C113.26 168.58 113.5 168.82 113.85 168.82C114.22 168.82 114.45 168.58 114.45 168.23C114.45 167.87 114.22 167.63 113.85 167.63ZM205.37 167.63C205.02 167.63 204.78 167.87 204.78 168.23C204.78 168.58 205.02 168.82 205.37 168.82C205.74 168.82 205.97 168.58 205.97 168.23C205.97 167.87 205.74 167.63 205.37 167.63ZM64.54 167.84L64.54 177.64L71.1 177.64L71.1 176.58L65.66 176.58L65.66 167.84L64.54 167.84ZM164.78 177.64L165.76 177.64L165.76 167.84L164.64 167.84L164.64 172.04C164.06 171.03 163.05 170.43 161.88 170.43C159.96 170.43 158.55 172.01 158.55 174.16C158.55 176.27 159.97 177.85 161.88 177.85C163.05 177.85 164.08 177.25 164.65 176.23L164.78 177.64ZM177.6 177.64L177.6 167.84L176.48 167.84L176.48 177.64L177.6 177.64ZM210.27 174.37L210.27 171.69L212.4 171.69L212.4 170.64L210.27 170.64L210.27 169.07L209.81 169.07L207.68 171.22L207.68 171.69L209.15 171.69L209.15 174.37C209.15 176.68 210.1 177.85 212.4 177.85L212.4 176.79C210.93 176.79 210.27 176.07 210.27 174.37ZM251 174.37L251 171.69L253.13 171.69L253.13 170.64L251 170.64L251 169.07L250.54 169.07L248.41 171.22L248.41 171.69L249.88 171.69L249.88 174.37C249.88 176.68 250.83 177.85 253.13 177.85L253.13 176.79C251.66 176.79 251 176.07 251 174.37ZM76.31 170.43C74.21 170.43 72.63 172.01 72.63 174.16C72.63 176.27 74.21 177.85 76.31 177.85C78.47 177.85 80.04 176.34 80.04 174.16C80.04 171.94 78.47 170.43 76.31 170.43ZM86.01 171.61L86.01 170.43C84.54 170.43 83.37 171.36 82.79 172.87L82.63 170.64L81.67 170.64L81.67 177.64L82.79 177.64L82.79 175.65C82.79 173.16 84.05 171.61 86.01 171.61ZM87.94 174.46L94.01 174.46C94.01 174.35 94.02 174.25 94.02 174.16C94.02 171.94 92.52 170.43 90.39 170.43C88.31 170.43 86.81 172.01 86.81 174.16C86.81 176.27 88.34 177.85 90.39 177.85C91.96 177.85 93.21 177.01 93.78 175.65L92.63 175.65C92.17 176.45 91.37 176.96 90.39 176.96C89.06 176.96 88.07 175.91 87.94 174.46ZM96.81 177.64L96.81 174.18C96.81 172.57 97.67 171.48 98.93 171.48C100.22 171.48 101.06 172.56 101.06 174.18L101.06 177.64L102.18 177.64L102.18 174.18C102.18 172.57 103.04 171.48 104.28 171.48C105.54 171.48 106.4 172.56 106.4 174.18L106.4 177.64L107.52 177.64L107.52 174.18C107.52 171.99 106.32 170.43 104.61 170.43C103.38 170.43 102.37 171.24 101.91 172.5C101.48 171.23 100.51 170.43 99.26 170.43C98.2 170.43 97.32 171.02 96.8 171.99L96.66 170.64L95.69 170.64L95.69 177.64L96.81 177.64ZM117.65 170.64L116.68 170.64L116.68 180.44L117.8 180.44L117.8 176.26C118.38 177.26 119.38 177.85 120.55 177.85C122.46 177.85 123.88 176.27 123.88 174.13C123.88 172.01 122.45 170.43 120.55 170.43C119.37 170.43 118.38 171.03 117.79 172.03L117.65 170.64ZM128.2 177.85C129.83 177.85 130.96 176.96 130.96 175.78C130.96 172.78 126.31 174.48 126.31 172.48C126.31 171.8 127.05 171.27 127.95 171.27C129.2 171.27 129.8 171.87 129.85 172.64L130.89 172.64C130.78 171.26 129.69 170.43 127.96 170.43C126.34 170.43 125.23 171.36 125.23 172.49C125.23 175.3 129.89 173.72 129.89 175.79C129.89 176.47 129.17 177 128.22 177C126.96 177 126.23 176.54 126.07 175.67L125.01 175.67C125.18 177.1 126.42 177.85 128.2 177.85ZM142.66 177.64L142.66 174.18C142.66 172.57 143.51 171.48 144.77 171.48C146.06 171.48 146.9 172.56 146.9 174.18L146.9 177.64L148.02 177.64L148.02 174.18C148.02 172.57 148.89 171.48 150.12 171.48C151.38 171.48 152.25 172.56 152.25 174.18L152.25 177.64L153.37 177.64L153.37 174.18C153.37 171.99 152.16 170.43 150.45 170.43C149.22 170.43 148.21 171.24 147.75 172.5C147.32 171.23 146.35 170.43 145.11 170.43C144.04 170.43 143.16 171.02 142.64 171.99L142.5 170.64L141.54 170.64L141.54 177.64L142.66 177.64ZM171.13 170.43C169.03 170.43 167.45 172.01 167.45 174.16C167.45 176.27 169.03 177.85 171.13 177.85C173.29 177.85 174.85 176.34 174.85 174.16C174.85 171.94 173.29 170.43 171.13 170.43ZM182.97 170.43C180.87 170.43 179.29 172.01 179.29 174.16C179.29 176.27 180.87 177.85 182.97 177.85C185.12 177.85 186.69 176.34 186.69 174.16C186.69 171.94 185.12 170.43 182.97 170.43ZM192.66 171.61L192.66 170.43C191.19 170.43 190.03 171.36 189.44 172.87L189.29 170.64L188.32 170.64L188.32 177.64L189.44 177.64L189.44 175.65C189.44 173.16 190.7 171.61 192.66 171.61ZM200.32 177.85C201.94 177.85 203.08 176.96 203.08 175.78C203.08 172.78 198.43 174.48 198.43 172.48C198.43 171.8 199.17 171.27 200.07 171.27C201.31 171.27 201.92 171.87 201.97 172.64L203.01 172.64C202.9 171.26 201.8 170.43 200.08 170.43C198.46 170.43 197.35 171.36 197.35 172.49C197.35 175.3 202.01 173.72 202.01 175.79C202.01 176.47 201.29 177 200.33 177C199.07 177 198.35 176.54 198.19 175.67L197.13 175.67C197.3 177.1 198.54 177.85 200.32 177.85ZM223.4 177.64L224.37 177.64L224.37 170.64L223.4 170.64L223.25 172.08C222.69 171.05 221.69 170.43 220.5 170.43C218.59 170.43 217.13 172.01 217.13 174.16C217.13 176.27 218.59 177.85 220.5 177.85C221.69 177.85 222.7 177.24 223.26 176.2L223.4 177.64ZM227.63 177.64L227.63 174.18C227.63 172.57 228.48 171.48 229.74 171.48C231.03 171.48 231.87 172.56 231.87 174.18L231.87 177.64L232.99 177.64L232.99 174.18C232.99 172.57 233.86 171.48 235.09 171.48C236.35 171.48 237.22 172.56 237.22 174.18L237.22 177.64L238.34 177.64L238.34 174.18C238.34 171.99 237.13 170.43 235.43 170.43C234.19 170.43 233.19 171.24 232.72 172.5C232.29 171.23 231.32 170.43 230.08 170.43C229.01 170.43 228.13 171.02 227.61 171.99L227.47 170.64L226.51 170.64L226.51 177.64L227.63 177.64ZM241.17 174.46L247.23 174.46C247.23 174.35 247.24 174.25 247.24 174.16C247.24 171.94 245.74 170.43 243.62 170.43C241.53 170.43 240.03 172.01 240.03 174.16C240.03 176.27 241.56 177.85 243.62 177.85C245.18 177.85 246.43 177.01 247 175.65L245.86 175.65C245.39 176.45 244.6 176.96 243.62 176.96C242.29 176.96 241.29 175.91 241.17 174.46ZM113.29 177.64L114.41 177.64L114.41 170.64L113.29 170.64L113.29 177.64ZM138.25 170.64L138.25 174.1C138.25 175.7 137.33 176.79 135.97 176.79C134.61 176.79 133.71 175.71 133.71 174.1L133.71 170.64L132.59 170.64L132.59 174.1C132.59 176.28 133.85 177.85 135.63 177.85C136.77 177.85 137.72 177.24 138.26 176.26L138.4 177.64L139.37 177.64L139.37 170.64L138.25 170.64ZM204.81 177.64L205.93 177.64L205.93 170.64L204.81 170.64L204.81 177.64ZM92.89 173.82L87.94 173.82C88.07 172.38 89.06 171.36 90.39 171.36C91.78 171.36 92.76 172.35 92.89 173.82ZM246.11 173.82L241.17 173.82C241.29 172.38 242.29 171.36 243.62 171.36C245 171.36 245.98 172.35 246.11 173.82ZM120.25 171.44C121.69 171.44 122.76 172.57 122.76 174.14C122.76 175.71 121.69 176.83 120.25 176.83C118.81 176.83 117.8 175.72 117.8 174.14C117.8 172.55 118.78 171.44 120.25 171.44ZM162.17 176.83C160.74 176.83 159.67 175.7 159.67 174.14C159.67 172.56 160.73 171.44 162.17 171.44C163.63 171.44 164.64 172.56 164.64 174.14C164.64 175.74 163.64 176.83 162.17 176.83ZM220.8 176.83C219.33 176.83 218.25 175.7 218.25 174.14C218.25 172.56 219.3 171.44 220.8 171.44C222.24 171.44 223.25 172.56 223.25 174.14C223.25 175.74 222.24 176.83 220.8 176.83ZM76.31 176.79C74.86 176.79 73.75 175.67 73.75 174.14C73.75 172.62 74.84 171.48 76.31 171.48C77.85 171.48 78.92 172.56 78.92 174.14C78.92 175.72 77.87 176.79 76.31 176.79ZM171.13 176.79C169.67 176.79 168.57 175.67 168.57 174.14C168.57 172.62 169.66 171.48 171.13 171.48C172.67 171.48 173.73 172.56 173.73 174.14C173.73 175.72 172.68 176.79 171.13 176.79ZM182.97 176.79C181.51 176.79 180.41 175.67 180.41 174.14C180.41 172.62 181.5 171.48 182.97 171.48C184.51 171.48 185.57 172.56 185.57 174.14C185.57 175.72 184.52 176.79 182.97 176.79ZM254.81 176.58L254.47 179.64L255.42 179.64L256.05 176.58L254.81 176.58ZM176.06 185.63C175.71 185.63 175.47 185.87 175.47 186.23C175.47 186.58 175.71 186.82 176.06 186.82C176.42 186.82 176.66 186.58 176.66 186.23C176.66 185.87 176.42 185.63 176.06 185.63ZM188.42 185.63C188.07 185.63 187.83 185.87 187.83 186.23C187.83 186.58 188.07 186.82 188.42 186.82C188.78 186.82 189.02 186.58 189.02 186.23C189.02 185.87 188.78 185.63 188.42 185.63ZM207.33 185.63C206.98 185.63 206.74 185.87 206.74 186.23C206.74 186.58 206.98 186.82 207.33 186.82C207.69 186.82 207.93 186.58 207.93 186.23C207.93 185.87 207.69 185.63 207.33 185.63ZM243.82 185.63C243.47 185.63 243.23 185.87 243.23 186.23C243.23 186.58 243.47 186.82 243.82 186.82C244.18 186.82 244.42 186.58 244.42 186.23C244.42 185.87 244.18 185.63 243.82 185.63ZM172.25 195.64L173.23 195.64L173.23 185.84L172.11 185.84L172.11 190.04C171.54 189.03 170.53 188.43 169.36 188.43C167.44 188.43 166.02 190.01 166.02 192.16C166.02 194.27 167.45 195.85 169.36 195.85C170.53 195.85 171.55 195.25 172.13 194.23L172.25 195.64ZM241 195.64L241 185.84L239.88 185.84L239.88 195.64L241 195.64ZM121.27 192.37L121.27 189.69L123.4 189.69L123.4 188.64L121.27 188.64L121.27 187.07L120.81 187.07L118.68 189.22L118.68 189.69L120.15 189.69L120.15 192.37C120.15 194.68 121.1 195.85 123.4 195.85L123.4 194.79C121.93 194.79 121.27 194.07 121.27 192.37ZM135.56 192.37L135.56 189.69L137.68 189.69L137.68 188.64L135.56 188.64L135.56 187.07L135.09 187.07L132.97 189.22L132.97 189.69L134.44 189.69L134.44 192.37C134.44 194.68 135.39 195.85 137.68 195.85L137.68 194.79C136.21 194.79 135.56 194.07 135.56 192.37ZM248.72 192.37L248.72 189.69L250.85 189.69L250.85 188.64L248.72 188.64L248.72 187.07L248.26 187.07L246.13 189.22L246.13 189.69L247.6 189.69L247.6 192.37C247.6 194.68 248.55 195.85 250.85 195.85L250.85 194.79C249.38 194.79 248.72 194.07 248.72 192.37ZM72.77 194.83C71.3 194.83 70.22 193.7 70.22 192.14C70.22 190.6 71.3 189.44 72.77 189.44C73.92 189.44 74.83 190.11 75.21 191.09L76.37 191.09C75.91 189.48 74.55 188.43 72.77 188.43C70.66 188.43 69.1 190.01 69.1 192.16C69.1 194.27 70.67 195.85 72.77 195.85C74.56 195.85 75.92 194.79 76.38 193.18L75.22 193.18C74.86 194.17 73.93 194.83 72.77 194.83ZM81.04 188.43C78.94 188.43 77.36 190.01 77.36 192.16C77.36 194.27 78.94 195.85 81.04 195.85C83.2 195.85 84.77 194.34 84.77 192.16C84.77 189.94 83.2 188.43 81.04 188.43ZM87.52 195.64L87.52 192.18C87.52 190.57 88.44 189.48 89.79 189.48C91.16 189.48 92.05 190.56 92.05 192.18L92.05 195.64L93.17 195.64L93.17 192.18C93.17 189.99 91.93 188.43 90.12 188.43C88.97 188.43 88.05 189.03 87.5 190.03L87.36 188.64L86.4 188.64L86.4 195.64L87.52 195.64ZM98.05 195.85C99.68 195.85 100.81 194.96 100.81 193.78C100.81 190.78 96.16 192.48 96.16 190.48C96.16 189.8 96.91 189.27 97.8 189.27C99.05 189.27 99.65 189.87 99.71 190.64L100.74 190.64C100.63 189.26 99.54 188.43 97.82 188.43C96.19 188.43 95.09 189.36 95.09 190.49C95.09 193.3 99.75 191.72 99.75 193.79C99.75 194.47 99.02 195 98.07 195C96.81 195 96.08 194.54 95.93 193.67L94.86 193.67C95.03 195.1 96.28 195.85 98.05 195.85ZM103 192.46L109.06 192.46C109.06 192.35 109.07 192.25 109.07 192.16C109.07 189.94 107.58 188.43 105.45 188.43C103.36 188.43 101.86 190.01 101.86 192.16C101.86 194.27 103.39 195.85 105.45 195.85C107.02 195.85 108.26 195.01 108.84 193.65L107.69 193.65C107.23 194.45 106.43 194.96 105.45 194.96C104.12 194.96 103.12 193.91 103 192.46ZM113.94 194.83C112.47 194.83 111.39 193.7 111.39 192.14C111.39 190.6 112.47 189.44 113.94 189.44C115.09 189.44 116 190.11 116.38 191.09L117.54 191.09C117.08 189.48 115.72 188.43 113.94 188.43C111.83 188.43 110.27 190.01 110.27 192.16C110.27 194.27 111.84 195.85 113.94 195.85C115.73 195.85 117.09 194.79 117.55 193.18L116.39 193.18C116.03 194.17 115.1 194.83 113.94 194.83ZM125.72 192.46L131.78 192.46C131.78 192.35 131.8 192.25 131.8 192.16C131.8 189.94 130.3 188.43 128.17 188.43C126.08 188.43 124.59 190.01 124.59 192.16C124.59 194.27 126.11 195.85 128.17 195.85C129.74 195.85 130.98 195.01 131.56 193.65L130.41 193.65C129.95 194.45 129.15 194.96 128.17 194.96C126.84 194.96 125.85 193.91 125.72 192.46ZM152.68 189.61L152.68 188.43C151.21 188.43 150.05 189.36 149.46 190.87L149.31 188.64L148.34 188.64L148.34 195.64L149.46 195.64L149.46 193.65C149.46 191.16 150.72 189.61 152.68 189.61ZM163.41 195.64L164.38 195.64L164.38 188.64L163.41 188.64L163.26 190.08C162.7 189.05 161.7 188.43 160.51 188.43C158.59 188.43 157.14 190.01 157.14 192.16C157.14 194.27 158.59 195.85 160.51 195.85C161.7 195.85 162.71 195.24 163.27 194.2L163.41 195.64ZM179.85 188.64L178.89 188.64L178.89 198.44L180.01 198.44L180.01 194.26C180.58 195.26 181.59 195.85 182.75 195.85C184.67 195.85 186.08 194.27 186.08 192.13C186.08 190.01 184.66 188.43 182.75 188.43C181.58 188.43 180.58 189.03 179.99 190.03L179.85 188.64ZM193.95 195.85C195.57 195.85 196.71 194.96 196.71 193.78C196.71 190.78 192.06 192.48 192.06 190.48C192.06 189.8 192.8 189.27 193.7 189.27C194.94 189.27 195.55 189.87 195.6 190.64L196.64 190.64C196.53 189.26 195.43 188.43 193.71 188.43C192.09 188.43 190.98 189.36 190.98 190.49C190.98 193.3 195.64 191.72 195.64 193.79C195.64 194.47 194.92 195 193.96 195C192.7 195 191.98 194.54 191.82 193.67L190.76 193.67C190.93 195.1 192.17 195.85 193.95 195.85ZM201.43 194.83C199.96 194.83 198.88 193.7 198.88 192.14C198.88 190.6 199.96 189.44 201.43 189.44C202.57 189.44 203.48 190.11 203.86 191.09L205.02 191.09C204.56 189.48 203.2 188.43 201.43 188.43C199.31 188.43 197.76 190.01 197.76 192.16C197.76 194.27 199.33 195.85 201.43 195.85C203.22 195.85 204.58 194.79 205.04 193.18L203.88 193.18C203.51 194.17 202.59 194.83 201.43 194.83ZM211.26 195.64L211.26 192.18C211.26 190.57 212.19 189.48 213.53 189.48C214.9 189.48 215.8 190.56 215.8 192.18L215.8 195.64L216.92 195.64L216.92 192.18C216.92 189.99 215.67 188.43 213.87 188.43C212.72 188.43 211.79 189.03 211.25 190.03L211.11 188.64L210.14 188.64L210.14 195.64L211.26 195.64ZM224.68 194.14L224.68 195.46C224.68 197.04 223.7 198.13 222.3 198.13C221.2 198.13 220.32 197.5 219.94 196.48L218.83 196.48C219.25 198.11 220.58 199.17 222.3 199.17C224.36 199.17 225.8 197.62 225.8 195.46L225.8 188.64L224.82 188.64L224.7 190.03C224.12 189.02 223.12 188.43 221.93 188.43C220.01 188.43 218.59 189.99 218.59 192.09C218.59 194.16 220.01 195.74 221.93 195.74C223.1 195.74 224.11 195.14 224.68 194.14ZM232.13 192.46L238.19 192.46C238.19 192.35 238.2 192.25 238.2 192.16C238.2 189.94 236.71 188.43 234.58 188.43C232.49 188.43 230.99 190.01 230.99 192.16C230.99 194.27 232.52 195.85 234.58 195.85C236.15 195.85 237.39 195.01 237.97 193.65L236.82 193.65C236.36 194.45 235.56 194.96 234.58 194.96C233.25 194.96 232.25 193.91 232.13 192.46ZM145.06 188.64L145.06 192.1C145.06 193.7 144.14 194.79 142.78 194.79C141.42 194.79 140.52 193.71 140.52 192.1L140.52 188.64L139.4 188.64L139.4 192.1C139.4 194.28 140.66 195.85 142.44 195.85C143.58 195.85 144.53 195.24 145.07 194.26L145.21 195.64L146.18 195.64L146.18 188.64L145.06 188.64ZM175.5 195.64L176.62 195.64L176.62 188.64L175.5 188.64L175.5 195.64ZM187.86 195.64L188.98 195.64L188.98 188.64L187.86 188.64L187.86 195.64ZM206.77 195.64L207.89 195.64L207.89 188.64L206.77 188.64L206.77 195.64ZM243.26 195.64L244.38 195.64L244.38 188.64L243.26 188.64L243.26 195.64ZM107.94 191.82L103 191.82C103.12 190.38 104.12 189.36 105.45 189.36C106.83 189.36 107.81 190.35 107.94 191.82ZM130.66 191.82L125.72 191.82C125.85 190.38 126.84 189.36 128.17 189.36C129.56 189.36 130.53 190.35 130.66 191.82ZM237.07 191.82L232.13 191.82C232.25 190.38 233.25 189.36 234.58 189.36C235.96 189.36 236.94 190.35 237.07 191.82ZM160.81 194.83C159.34 194.83 158.26 193.7 158.26 192.14C158.26 190.56 159.31 189.44 160.81 189.44C162.25 189.44 163.26 190.56 163.26 192.14C163.26 193.74 162.25 194.83 160.81 194.83ZM169.65 194.83C168.22 194.83 167.14 193.7 167.14 192.14C167.14 190.56 168.21 189.44 169.65 189.44C171.11 189.44 172.11 190.56 172.11 192.14C172.11 193.74 171.12 194.83 169.65 194.83ZM182.46 189.44C183.9 189.44 184.96 190.57 184.96 192.14C184.96 193.71 183.9 194.83 182.46 194.83C181.02 194.83 180.01 193.72 180.01 192.14C180.01 190.55 180.99 189.44 182.46 189.44ZM222.22 194.7C220.78 194.7 219.71 193.61 219.71 192.09C219.71 190.56 220.76 189.44 222.22 189.44C223.66 189.44 224.68 190.53 224.68 192.09C224.68 193.63 223.69 194.7 222.22 194.7ZM81.04 194.79C79.59 194.79 78.48 193.67 78.48 192.14C78.48 190.62 79.57 189.48 81.04 189.48C82.58 189.48 83.65 190.56 83.65 192.14C83.65 193.72 82.6 194.79 81.04 194.79Z" fill="#F6FFD2" fill-opacity="1.000000" fill-rule="evenodd"/>
	<g filter="url(#filter_9_430_dd)">
		<path id="Vector" d="M303 19.04L303 47.56C303 47.95 303.52 48.09 303.71 47.75L318 23.07C321.11 17.71 317.24 11 311.04 11C306.6 11 303 14.6 303 19.04Z" fill="#FFFFFF" fill-opacity="1.000000" fill-rule="nonzero"/>
	</g>
</svg>
