<svg width="136.100586" height="52.875000" viewBox="0 0 136.101 52.875" fill="none" xmlns="http://www.w3.org/2000/svg" xmlns:xlink="http://www.w3.org/1999/xlink">
	<desc>
			Created with Pixso.
	</desc>
	<defs/>
	<path id="лого" d="M18.5 22.39L0 22.39L0 0L18.5 0L18.5 4.12L4.48 4.12L4.48 9.11L17.98 9.11L17.98 13.25L4.48 13.25L4.48 18.24L18.5 18.24L18.5 22.39ZM22.36 28.79L22.36 6.39L26.36 6.39L26.78 8.44C28.41 6.84 30.75 5.92 33.43 5.92C38.75 5.92 42.75 9.53 42.75 14.36C42.75 19.26 38.78 22.87 33.43 22.87C30.78 22.87 28.47 21.98 26.85 20.38L26.85 28.79L22.36 28.79ZM54.69 9.98C51.61 9.98 49.38 11.83 49.38 14.42C49.38 16.99 51.64 18.78 54.69 18.78C57.12 18.78 58.91 17.82 59.64 16.15L64.28 16.15C63.45 20.21 59.64 22.87 54.69 22.87C49.09 22.87 44.89 19.26 44.89 14.42C44.89 9.53 49.05 5.92 54.69 5.92C59.61 5.92 63.39 8.5 64.25 12.6L59.61 12.6C58.88 10.97 57.09 9.98 54.69 9.98ZM32.47 18.91C35.9 18.91 38.27 16.99 38.27 14.36C38.27 11.74 35.84 9.85 32.47 9.85C29.11 9.85 26.85 11.71 26.85 14.36C26.85 17.05 29.11 18.91 32.47 18.91ZM4.48 52.39L0 52.39L0 30L4.48 30L4.48 39.11L16.73 39.11L16.73 30L21.21 30L21.21 52.39L16.73 52.39L16.73 43.25L4.48 43.25L4.48 52.39ZM81.75 40.52L77.15 40.52L77.15 44.91C77.15 47.46 78.68 48.71 81.75 48.71L81.75 52.87C75.83 52.87 72.67 49.93 72.67 44.91L72.67 40.52L69.4 40.52L69.4 38.73L75.36 32.81L77.15 32.81L77.15 36.39L81.75 36.39L81.75 40.52ZM56.99 40.04C54.14 40.04 52.22 42.06 52.22 44.94L52.22 52.39L47.74 52.39L47.74 36.39L51.74 36.39L52.18 39.02C53.6 37.1 55.71 35.92 58.21 35.92C63 35.92 66.36 39.6 66.36 44.94L66.36 52.39L61.89 52.39L61.89 44.94C61.89 42.06 59.83 40.04 56.99 40.04ZM103.26 44.42C103.26 44.78 103.26 45.16 103.2 45.51L88.67 45.51C89.14 47.82 91.2 49.35 93.89 49.35C95.8 49.35 97.34 48.65 98.18 47.5L102.72 47.5C101.5 50.76 98.07 52.87 93.69 52.87C88.19 52.87 84.06 49.26 84.06 44.42C84.06 39.53 88.15 35.92 93.69 35.92C99.16 35.92 103.26 39.34 103.26 44.42ZM110.82 40.55C112.28 37.71 114.94 35.92 118.36 35.92L118.36 40.65C113.6 40.65 110.82 43.37 110.82 47.85L110.82 52.39L106.33 52.39L106.33 36.39L110.33 36.39L110.82 40.55ZM129.03 42.91C132.23 43.31 136.1 43.79 136.1 47.85C136.1 50.73 133.05 52.87 128.38 52.87C123.58 52.87 120.31 50.76 119.96 47.43L124.45 47.43C124.7 48.84 126.11 49.67 128.38 49.67C130.21 49.67 131.58 48.87 131.58 47.85C131.58 44.33 120.38 47.43 120.38 41C120.38 38.18 123.26 35.92 127.93 35.92C132.73 35.92 135.58 38 135.84 41.32L131.35 41.32C131.17 40.04 130.01 39.14 127.9 39.14C126.14 39.14 124.86 39.92 124.86 40.97C124.86 42.39 126.78 42.63 129.03 42.91ZM34.43 48.71C37.25 48.71 39.23 46.7 39.23 43.85L39.23 36.39L43.71 36.39L43.71 52.39L39.68 52.39L39.26 49.74C37.85 51.69 35.74 52.87 33.25 52.87C28.44 52.87 25.08 49.16 25.08 43.85L25.08 36.39L29.57 36.39L29.57 43.85C29.57 46.73 31.58 48.71 34.43 48.71ZM93.69 39.53C91.1 39.53 89.14 41.03 88.67 43.28L98.65 43.28C98.21 41 96.32 39.53 93.69 39.53Z" fill="#FFFFFF" fill-opacity="1.000000" fill-rule="evenodd"/>
</svg>
