<svg width="85.065430" height="34.299988" viewBox="0 0 85.0654 34.3" fill="none" xmlns="http://www.w3.org/2000/svg" xmlns:xlink="http://www.w3.org/1999/xlink">
	<desc>
			Created with Pixso.
	</desc>
	<defs/>
	<path id="лого" d="M-2.93e-5 -1.91e-6L-2.93e-5 14L11.56 14L11.56 11.4L2.79 11.4L2.79 8.28L11.24 8.28L11.24 5.7L2.79 5.7L2.79 2.58L11.56 2.58L11.56 -1.91e-6L-2.93e-5 -1.91e-6ZM16.48 4L13.98 4L13.98 18L16.78 18L16.78 12.74C17.8 13.74 19.24 14.3 20.9 14.3C24.24 14.3 26.72 12.04 26.72 8.97C26.72 5.96 24.22 3.7 20.9 3.7C19.22 3.7 17.76 4.28 16.74 5.28L16.48 4ZM34.19 11.74C32.29 11.74 30.87 10.62 30.87 9.02C30.87 7.4 32.27 6.24 34.19 6.24C35.69 6.24 36.81 6.86 37.27 7.88L40.17 7.88C39.63 5.32 37.27 3.7 34.19 3.7C30.67 3.7 28.07 5.96 28.07 9.02C28.07 12.04 30.69 14.3 34.19 14.3C37.29 14.3 39.67 12.64 40.19 10.1L37.29 10.1C36.83 11.14 35.71 11.74 34.19 11.74ZM20.3 6.16C22.4 6.16 23.92 7.34 23.92 8.97C23.92 10.62 22.44 11.82 20.3 11.82C18.2 11.82 16.78 10.66 16.78 8.97C16.78 7.32 18.2 6.16 20.3 6.16ZM-2.93e-5 20L-2.93e-5 34L2.79 34L2.79 28.28L10.46 28.28L10.46 34L13.26 34L13.26 20L10.46 20L10.46 25.7L2.79 25.7L2.79 20L-2.93e-5 20ZM48.22 29.32L48.22 26.58L51.1 26.58L51.1 24L48.22 24L48.22 21.76L47.1 21.76L43.38 25.46L43.38 26.58L45.42 26.58L45.42 29.32C45.42 32.46 47.4 34.3 51.1 34.3L51.1 31.7C49.18 31.7 48.22 30.92 48.22 29.32ZM32.64 34L32.64 29.34C32.64 27.54 33.84 26.28 35.62 26.28C37.4 26.28 38.68 27.54 38.68 29.34L38.68 34L41.48 34L41.48 29.34C41.48 26 39.38 23.7 36.38 23.7C34.82 23.7 33.5 24.44 32.62 25.64L32.34 24L29.84 24L29.84 34L32.64 34ZM55.42 29.7L64.5 29.7C64.54 29.48 64.54 29.24 64.54 29.02C64.54 25.84 61.98 23.7 58.56 23.7C55.1 23.7 52.54 25.96 52.54 29.02C52.54 32.04 55.12 34.3 58.56 34.3C61.3 34.3 63.44 32.98 64.2 30.94L61.36 30.94C60.84 31.66 59.88 32.09 58.68 32.09C57 32.09 55.72 31.14 55.42 29.7ZM73.98 26.66L73.98 23.7C71.84 23.7 70.18 24.82 69.26 26.6L68.96 24L66.46 24L66.46 34L69.26 34L69.26 31.16C69.26 28.36 71 26.66 73.98 26.66ZM80.24 34.3C83.16 34.3 85.06 32.96 85.06 31.16C85.06 28.62 82.64 28.32 80.64 28.07C79.24 27.89 78.04 27.74 78.04 26.86C78.04 26.2 78.84 25.72 79.94 25.72C81.26 25.72 81.98 26.28 82.1 27.08L84.9 27.08C84.74 25 82.96 23.7 79.96 23.7C77.04 23.7 75.24 25.12 75.24 26.88C75.24 30.9 82.24 28.96 82.24 31.16C82.24 31.8 81.38 32.3 80.24 32.3C78.82 32.3 77.94 31.78 77.78 30.9L74.98 30.9C75.2 32.98 77.24 34.3 80.24 34.3ZM24.52 24L24.52 28.66C24.52 30.44 23.28 31.7 21.52 31.7C19.74 31.7 18.48 30.46 18.48 28.66L18.48 24L15.68 24L15.68 28.66C15.68 31.98 17.78 34.3 20.78 34.3C22.34 34.3 23.66 33.56 24.54 32.34L24.8 34L27.32 34L27.32 24L24.52 24ZM61.66 28.3L55.42 28.3C55.72 26.9 56.94 25.96 58.56 25.96C60.2 25.96 61.38 26.88 61.66 28.3Z" fill="#F2F3EF" fill-opacity="1.000000" fill-rule="evenodd"/>
</svg>
